<svg id="facebook" xmlns="http://www.w3.org/2000/svg" width="72" height="72" viewBox="0 0 72 72">
  <path id="Caminho_182" data-name="Caminho 182" d="M69.188,49.5A2.812,2.812,0,0,0,72,46.688V11.25A11.263,11.263,0,0,0,60.75,0H11.25A11.263,11.263,0,0,0,0,11.25v49.5A11.263,11.263,0,0,0,11.25,72h49.5A11.263,11.263,0,0,0,72,60.75a2.813,2.813,0,0,0-5.625,0,5.632,5.632,0,0,1-5.625,5.625H46.969V45.844h6.509a2.813,2.813,0,0,0,2.793-2.476l.372-3.094a2.813,2.813,0,0,0-2.793-3.149H46.969V27.7a4.218,4.218,0,0,1,4.219-4.219H54.7a2.812,2.812,0,0,0,2.813-2.812V17.827a2.81,2.81,0,0,0-2.522-2.8c-1.426-.145-2.935-.264-3.806-.264a13.021,13.021,0,0,0-9.02,3.8,12.8,12.8,0,0,0-3.918,9.166v9.4H31.922a2.812,2.812,0,0,0-2.812,2.813v3.094a2.812,2.812,0,0,0,2.813,2.813H38.25V66.375h-27A5.632,5.632,0,0,1,5.625,60.75V11.25A5.632,5.632,0,0,1,11.25,5.625h49.5a5.632,5.632,0,0,1,5.625,5.625V46.688A2.812,2.812,0,0,0,69.188,49.5Zm0,0" fill="#4a87fd"/>
</svg>
