<svg xmlns="http://www.w3.org/2000/svg" width="73.531" height="72" viewBox="0 0 73.531 72">
  <g id="github" transform="translate(0 -5.329)">
    <g id="Grupo_24" data-name="Grupo 24" transform="translate(0 5.329)">
      <g id="Grupo_23" data-name="Grupo 23">
        <path id="Caminho_186" data-name="Caminho 186" d="M36.761,5.329A36.934,36.934,0,0,0,25.148,77.265c1.838.34,2.509-.8,2.509-1.779,0-.878-.032-3.2-.051-6.278-10.225,2.229-12.385-4.95-12.385-4.95-1.668-4.265-4.081-5.4-4.081-5.4-3.341-2.289.248-2.243.248-2.243,3.69.262,5.63,3.805,5.63,3.805,3.281,5.639,8.608,4.012,10.7,3.065a7.879,7.879,0,0,1,2.335-4.936c-8.162-.933-16.747-4.1-16.747-18.24A14.307,14.307,0,0,1,17.1,30.4a13.3,13.3,0,0,1,.358-9.766s3.088-.993,10.11,3.782a34.7,34.7,0,0,1,18.41,0c7.018-4.775,10.1-3.782,10.1-3.782a13.32,13.32,0,0,1,.368,9.766,14.28,14.28,0,0,1,3.778,9.908c0,14.178-8.594,17.3-16.783,18.213,1.319,1.14,2.5,3.392,2.5,6.834,0,4.936-.046,8.916-.046,10.124,0,.988.662,2.137,2.528,1.774A36.937,36.937,0,0,0,36.761,5.329Z" transform="translate(0 -5.329)" fill="#fff"/>
      </g>
    </g>
  </g>
</svg>
