<svg xmlns="http://www.w3.org/2000/svg" width="71.428" height="71.43" viewBox="0 0 71.428 71.43">
  <g id="instagram_1_" data-name="instagram (1)" transform="translate(0 -0.001)">
    <path id="Caminho_185" data-name="Caminho 185" d="M36.418,71.432h-.711c-5.6.014-10.772-.129-15.8-.435A21.125,21.125,0,0,1,7.727,66.386a19.546,19.546,0,0,1-6.568-10.6A46.987,46.987,0,0,1,.081,44.563c-.036-2.608-.073-5.7-.081-8.84.008-3.155.045-6.245.081-8.853A46.992,46.992,0,0,1,1.159,15.65a19.546,19.546,0,0,1,6.568-10.6A21.125,21.125,0,0,1,19.9.437C24.935.131,30.11-.011,35.721,0c5.6-.012,10.772.129,15.8.435A21.125,21.125,0,0,1,63.7,5.046a19.543,19.543,0,0,1,6.568,10.6,46.989,46.989,0,0,1,1.078,11.22c.036,2.608.074,5.7.081,8.84s-.045,6.245-.081,8.853a2.79,2.79,0,1,1-5.58-.076c.035-2.592.073-5.662.08-8.777s-.045-6.171-.08-8.764a42.748,42.748,0,0,0-.905-9.916,14.089,14.089,0,0,0-4.687-7.658,15.371,15.371,0,0,0-8.989-3.364c-4.913-.3-9.97-.437-15.465-.425-5.507-.013-10.565.126-15.478.425a15.375,15.375,0,0,0-8.989,3.364A14.088,14.088,0,0,0,6.566,17.03a42.748,42.748,0,0,0-.905,9.916c-.035,2.592-.072,5.662-.08,8.777.008,3.1.045,6.171.08,8.764A42.748,42.748,0,0,0,6.566,54.4a14.089,14.089,0,0,0,4.687,7.658,15.372,15.372,0,0,0,8.989,3.364c4.913.3,9.972.438,15.465.425,5.508.013,10.565-.126,15.478-.425a15.372,15.372,0,0,0,8.989-3.364,13.407,13.407,0,0,0,3.831-5.132,2.79,2.79,0,0,1,5.121,2.218A18.927,18.927,0,0,1,63.7,66.386,21.121,21.121,0,0,1,51.525,71c-4.818.293-9.768.436-15.106.436ZM53.013,35.716A17.439,17.439,0,1,0,35.574,53.155,17.459,17.459,0,0,0,53.013,35.716Zm-5.581,0A11.859,11.859,0,1,1,35.574,23.858,11.872,11.872,0,0,1,47.433,35.716ZM54.967,12.7a4.185,4.185,0,1,0,4.185,4.185A4.185,4.185,0,0,0,54.967,12.7Zm0,0" fill="#fc5d5c"/>
  </g>
</svg>
