<svg xmlns="http://www.w3.org/2000/svg" width="71.43" height="71.43" viewBox="0 0 71.43 71.43">
  <g id="linkedin" transform="translate(0)">
    <path id="Caminho_181" data-name="Caminho 181" d="M19.533,59.014H15.348a2.79,2.79,0,0,1-2.79-2.79V30.274a2.79,2.79,0,0,1,2.79-2.79h4.185a2.79,2.79,0,0,1,2.79,2.79V56.224A2.79,2.79,0,0,1,19.533,59.014ZM23.3,17.439a5.719,5.719,0,1,0-5.717,5.721A5.72,5.72,0,0,0,23.3,17.439ZM58.875,56.224V41.667c0-8.464-1.788-14.741-11.675-14.741-4.751,0-7.94,2.376-9.242,4.847h-.009v-1.5a2.79,2.79,0,0,0-2.79-2.79H31.251a2.79,2.79,0,0,0-2.79,2.79V56.224a2.79,2.79,0,0,0,2.79,2.79h3.906a2.79,2.79,0,0,0,2.79-2.79V43.359c0-4.1,1.044-8.072,6.125-8.072,5.013,0,5.175,4.688,5.175,8.332v12.6a2.79,2.79,0,0,0,2.79,2.79h4.046a2.79,2.79,0,0,0,2.79-2.79Zm12.556,4.046a2.79,2.79,0,1,0-5.58,0,5.587,5.587,0,0,1-5.58,5.58H11.161a5.587,5.587,0,0,1-5.581-5.58V11.161a5.587,5.587,0,0,1,5.581-5.581H60.27a5.587,5.587,0,0,1,5.58,5.581V46.179a2.79,2.79,0,1,0,5.58,0V11.161A11.173,11.173,0,0,0,60.27,0H11.161A11.173,11.173,0,0,0,0,11.161V60.269A11.173,11.173,0,0,0,11.161,71.43H60.27A11.173,11.173,0,0,0,71.431,60.269Zm0,0" transform="translate(0)" fill="#0057ff"/>
  </g>
</svg>
