<svg id="svg" xmlns="http://www.w3.org/2000/svg" width="404.5" height="67.557" viewBox="0 0 404.5 67.557">
  <g id="layer101" transform="translate(0 0.032)">
    <path id="Caminho_1" data-name="Caminho 1" d="M524.987,1259.66,522,1256.154l9.025-9.025c4.934-4.935,9.025-9.479,9.025-10.064s-3.052-3.961-6.687-7.532c-3.7-3.571-6.947-6.818-7.272-7.272-.325-.584.779-2.143,3.246-4.61,3.182-3.182,3.961-3.7,4.935-3.052a1.624,1.624,0,0,0,2.208-.195c.909-.779,1.428-.52,4.09,2.013,1.688,1.623,5.844,5.519,9.22,8.7,3.376,3.246,7.077,6.817,8.246,7.986,3.831,3.9,3.571,4.22-10.194,17.855L535.505,1263.1h-3.766C527.973,1263.1,527.973,1263.1,524.987,1259.66Z" transform="translate(-498.496 -1195.576)" fill="#5f6364"/>
    <path id="Caminho_2" data-name="Caminho 2" d="M5565.053,1119.49l-3.05-.39,7.66-20.971c4.221-11.558,7.792-21.1,7.987-21.3s3.766-.389,8.051-.454c6.492-.13,7.661,0,7.6.844-.13.909-7.921,22.855-9.674,26.945-.39,1.1-1.753,4.74-2.921,8.116a58.37,58.37,0,0,1-2.792,7.012C5577.259,1120.139,5570.767,1120.2,5565.053,1119.49Z" transform="translate(-5211.263 -1066.833)" fill="#5f6364"/>
    <path id="Caminho_3" data-name="Caminho 3" d="M171.168,968.567c-9.22-8.9-11.168-11.1-11.168-12.6,0-1.558,2.143-3.9,12.531-13.894L185,930h3.441c3.636,0,3.766.065,8.051,5.519,1.1,1.364.909,1.623-7.6,10.453-5.324,5.454-8.765,9.545-8.765,10.324s2.6,3.7,6.817,7.662c3.766,3.506,6.817,6.882,6.817,7.531s-1.623,2.727-3.636,4.61c-3.311,3.117-3.636,3.311-4.74,2.337-.974-.909-1.234-.909-2.078-.065S181.037,978.047,171.168,968.567Z" transform="translate(-160 -930)" fill="#5f6364"/>
    <path id="Caminho_4" data-name="Caminho 4" d="M1157.75,1105.048c-1.948-.195-3.246-.909-5.324-2.922-1.494-1.493-2.792-3.441-2.922-4.35l-.2-1.623-2.077,2.207-2.078,2.208-1.623-1.494c-1.623-1.558-1.688-1.558-3.052-.324-1.3,1.169-1.364,1.169-7.921-5.454l-6.558-6.687,6.753-6.753,6.817-6.817,1.1,1.428,1.1,1.493,1.623-1.558,1.688-1.623,1.818,1.753c2.208,2.143,2.727,2.207,2.727.26,0-.909,1.1-2.6,2.857-4.286l2.857-2.792,12.921-.39,12.921-.324,2.987,2.987c2.727,2.662,2.986,3.181,3.246,6.557l.2,3.7-7.467-.195c-7.4-.195-7.467-.195-7.661-1.818-.39-2.4-1.3-3.246-3.7-3.246-3.766,0-4.22,1.234-4.22,11.622,0,9.934.389,11.1,3.376,11.1,1.493-.065,5.714-3.311,5.714-4.545,0-.649-1.494-.909-4.675-.649-1.753.065-1.818,0-1.818-3.441v-3.506l3.961-.455c2.208-.195,6.882-.39,10.388-.39h6.428v20.647l-13.764-.065C1166.58,1105.308,1159.179,1105.178,1157.75,1105.048Zm-8.441-26.036c-.195-.195-2.077,1.364-4.22,3.441l-3.9,3.831,4.026,4.155,4.09,4.091.2-7.6C1149.569,1082.778,1149.5,1079.207,1149.309,1079.012Z" transform="translate(-1063.28 -1058.105)" fill="#5f6364"/>
    <path id="Caminho_5" data-name="Caminho 5" d="M2152.792,1106.776l-2.792-.26V1069.7l6.039-.455c9.479-.714,8.57-2.337,8.765,14.8l.13,14.739h8.116c6.1,0,8.116-.195,8.116-.78,0-.454,1.818-7.012,4.026-14.544l4.025-13.7,4.285-.455c7.531-.714,16.037-.454,16.751.455a17.227,17.227,0,0,1,1.688,4.415c2.143,8.311,6.428,22.4,6.947,22.919.325.39.585-5.324.585-13.375v-13.959l4.415-.39c2.4-.26,5.908-.455,7.726-.455h3.376l2.6,4.74c4.48,8.116,4.545,8.116,4.61,1.623V1069.7l6.169-.455c3.376-.26,6.557-.325,7.141-.065.844.324.974,2.922.974,19.219v18.829h-3.506c-1.883,0-5.195-.195-7.337-.39l-3.9-.454-3.961-7.207-4.025-7.207v15.193h-9.544c-14.025.065-19.024-.454-19.024-1.883a13.812,13.812,0,0,0-.714-3.181c-.714-1.948-.779-2.013-4.74-2.013h-4.09l-.779,3.506-.779,3.571-19.284-.065C2164.22,1107.036,2154.286,1106.906,2152.792,1106.776Zm48.631-16.362a15.154,15.154,0,0,0-.908-3.246l-.65-1.688-.844,2.273c-1.429,3.7-1.234,4.675.844,4.415C2201.294,1092.037,2201.553,1091.713,2201.423,1090.415Z" transform="translate(-2020.795 -1059.833)" fill="#5f6364"/>
    <path id="Caminho_6" data-name="Caminho 6" d="M3807.661,1105.048c-2.532-.195-3.376-.649-5.323-2.857l-2.337-2.532V1073.3l2.857-2.792,2.856-2.857,12.076-.325,12.077-.324,3.311,3.311c3.246,3.246,3.246,3.246,3.052,7.077-.26,4.48-.2,4.48-9.415,3.766l-6.038-.454v-2.467c0-3.246-2.6-4.415-4.8-2.208-.844.844-1.038,2.727-1.038,10.583,0,10.453.194,11.1,3.635,11.1,2.143,0,2.857-.844,2.857-3.571,0-1.818.779-2.013,7.792-2.208a34.723,34.723,0,0,0,5.843-.455c.13-.195,1.818-5.519,3.637-11.817l3.312-11.492,4.479-.519c2.468-.26,7.272-.389,10.649-.325l6.167.2,3.442,12.012c5.518,18.959,5.258,18.829,5.258,2.467l.065-14.024,6.168-.454c8.117-.649,8.831-.39,10.324,3.376,3.505,8.765,5.129,12.531,5.453,12.206.2-.195,1.688-3.636,3.376-7.661l2.987-7.272,4.545-.519a63.284,63.284,0,0,1,7.4-.325l2.922.2.194,19.024.13,18.959h-3.118c-1.753,0-4.934-.195-7.141-.39l-3.961-.455-.26-2.662-.195-2.662-.909,2.078-.909,2.078-5.129-.065c-5.064,0-5.194-.065-5.843-1.883-1.039-2.727-1.753-2.337-1.753,1.039v2.987l-13.7-.26c-15-.26-14.479-.065-15.193-4.48l-.454-2.468h-4.156c-3.96,0-4.155.065-4.545,1.818-.194.974-.584,2.467-.844,3.376l-.519,1.623-18.115.065C3818.894,1105.243,3809.35,1105.178,3807.661,1105.048Zm46.878-14.933a29.475,29.475,0,0,0-.908-3.766l-.844-3.246-.715,2.6c-1.168,3.961-1.038,4.87.844,4.87C3853.825,1090.569,3854.539,1090.374,3854.539,1090.115Z" transform="translate(-3563.663 -1058.105)" fill="#5f6364"/>
    <path id="Caminho_7" data-name="Caminho 7" d="M6028.637,1185.842c-1.429-1.364-1.494-1.364-2.792-.195s-1.364,1.169-3.571-.974l-2.273-2.207,4.35-4.415,4.35-4.415-4.286-4.351-4.35-4.415,2.144-2.4c2.142-2.337,2.142-2.4,3.376-1.1,1.3,1.234,1.3,1.234,2.727-.065a5.007,5.007,0,0,1,1.882-1.3c.326,0,3.507,2.987,7.143,6.688l6.623,6.623-6.883,7.012c-3.766,3.831-6.947,6.948-6.947,6.948A17.5,17.5,0,0,1,6028.637,1185.842Z" transform="translate(-5639.524 -1145.067)" fill="#5f6364"/>
  </g>
  <g id="layer102" transform="translate(0.92 0.032)">
    <path id="Caminho_8" data-name="Caminho 8" d="M528.532,1264c-1.039-.195-2.922-1.493-4.675-3.311L521,1257.633l9.025-9.09c5.779-5.844,9.09-9.609,9.09-10.454s-2.338-3.441-6.623-7.4c-3.7-3.376-6.817-6.623-6.882-7.337-.195-.844.909-2.467,3.181-4.74,2.727-2.792,3.571-3.311,4.35-2.727.649.584,1.169.584,2.208-.065,1.169-.714,1.623-.519,4.35,2.013,1.623,1.558,5.778,5.454,9.155,8.635,3.376,3.247,7.077,6.817,8.246,7.986,3.831,3.9,3.571,4.22-10.194,17.855C533.661,1265.36,534.44,1264.841,528.532,1264Z" transform="translate(-498.482 -1196.926)" fill="#69635d"/>
    <path id="Caminho_9" data-name="Caminho 9" d="M185.916,969.866c-7.272-6.947-9.544-9.479-8.83-9.934.649-.39.649-.649.065-1.039a.992.992,0,0,0-1.3.26c-.325.584-.649.519-1.169-.13-1.1-1.3-.26-5,1.1-5.064.779,0,.714-.13-.26-.584-1.1-.454-1.039-.584.649-.584,1.688-.065,3.636-1.753,12.531-10.648,5.779-5.843,10.518-10.843,10.518-11.1,0-.325-.454-.195-.974.26-.584.455-.974.519-.974.13,0-.974,1.688-1.428,4.935-1.428,3.052,0,3.376.26,7.532,5.519,1.1,1.364.909,1.623-7.6,10.453-5.324,5.454-8.765,9.545-8.765,10.324s2.6,3.7,6.817,7.662c3.766,3.506,6.817,6.882,6.817,7.531s-1.623,2.662-3.571,4.545l-3.571,3.376-2.272-1.753c-1.753-1.3-2.272-1.494-2.272-.714a1.307,1.307,0,0,0,.779,1.234c.454.195.519.455.195.649C195.914,979.02,191.3,974.995,185.916,969.866Zm3.571.779c0-.195-.325-.519-.779-.779s-.519-.195-.26.26C188.9,970.9,189.487,971.164,189.487,970.645Z" transform="translate(-174.175 -930)" fill="#69635d"/>
    <path id="Caminho_10" data-name="Caminho 10" d="M2158.377,1113.608c-2.078-.325-2.013-1.818.065-1.753,1.3,0,1.3-.26,1.364-15.907.064-8.765-.13-16.3-.455-16.751a4.623,4.623,0,0,0-2.4-1.039l-1.948-.26,2.142-.13c1.1,0,2.078-.325,2.078-.714s2.143-.65,5.194-.65h5.194l.13,14.609.195,14.674h7.142c3.961.065,7.467.065,7.856,0,.65-.065,1.623-2.272,1.818-4.09a3.264,3.264,0,0,1,.909-1.234c.649-.714.779-.519.844.714,0,.909.194,1.234.39.844a1.231,1.231,0,0,1,2.337,0c.2.39.39,0,.39-.974.065-1.494-.195-1.818-1.493-1.818-1.364,0-1.559-.26-1.428-2.4.2-2.922,2.273-10.453,3.052-10.973.26-.13.325-.779.13-1.364-.26-.714-.195-.909.325-.584s.779-.065.779-1.039a5.586,5.586,0,0,1,.973-2.857c.909-1.169.909-1.169.974.519,0,.974-.259,1.948-.649,2.143-1.039.649-.715,1.623.389,1.169a1.3,1.3,0,0,1,1.558.52c.52.714.649.714.909-.065.129-.519.584-1.948.973-3.051a9.948,9.948,0,0,0,.39-3.441c-.13-.714,0-1.169.324-.974a.594.594,0,0,0,.844-.13c.324-.519,1.623-.519,10.648-.325l4.675.13,1.623,5.389c.909,2.922,2.792,9.414,4.221,14.349,1.493,5,2.987,9.349,3.376,9.739.584.52.649.454.324-.13-.649-1.038.065-4.025.909-4.025.324,0,.779.584.974,1.3s.78,1.3,1.3,1.3a1.44,1.44,0,0,1,1.168,1.169c.195.584.325-5.649.389-13.959l.065-15.063,1.494-.195a35.116,35.116,0,0,1,5.324,0l3.96.26,2.792,5.389a47.309,47.309,0,0,0,4.22,6.947c.715.844,1.1,1.169.715.649a13.492,13.492,0,0,1-.715-4.415c-.13-3.311,0-3.506,1.429-3.506,1.364,0,1.558.324,1.558,2.6,0,1.883.26,2.6.974,2.6.779,0,.974-1.039.974-5.194V1076.4h9.09v37.658h-4.545c-3.312,0-4.545-.26-4.545-.844a4.794,4.794,0,0,0-1.494-2.272c-1.363-1.3-1.558-1.3-1.428-.325a4.066,4.066,0,0,0,.584,2.013c.325.519-.065.779-1.234.779-1.493,0-1.623-.195-1.493-2.272.065-1.428.455-2.272,1.039-2.272s.779-.39.52-1.039a7.1,7.1,0,0,1-.389-1.624c0-.324-.2-.519-.454-.455a11.166,11.166,0,0,1-2.987-.39c-2.662-.519-2.986-1.882-.584-2.207.78-.13,1.428-.519,1.428-.844,0-.39-.194-.52-.455-.39-.324.195-.974-.13-1.493-.714-.844-.909-.779-.974.2-.584.584.195,1.1.13,1.1-.195,0-.389-.844-.649-1.948-.649q-1.948,0-1.948-.974a1,1,0,0,1,.974-.974c.52,0,.974-.26.974-.649a.712.712,0,0,0-.715-.649c-.324,0-.455-.325-.259-.714.324-.454-.2-.584-1.364-.454l-1.883.195-.195,9.35-.195,9.35-5.324-.455a63.609,63.609,0,0,0-6.623-.325c-5.389.39-10.323.13-10.583-.584-.13-.455-.455-.649-.78-.455s-.454-.389-.325-1.3a4.645,4.645,0,0,0-.974-3.052c-.974-1.233-1.818-1.428-7.142-1.428l-5.973-.065-1.1,3.571-1.1,3.571-19.089.065C2168.831,1113.868,2159.351,1113.738,2158.377,1113.608Zm29.867-2.272c-.195-.52-.39-.325-.39.39-.065.714.13,1.1.324.844A1.313,1.313,0,0,0,2188.244,1111.335Zm38.112.455c.2-.52.065-.974-.259-.974-.39,0-.649.454-.649.974s.13.974.26.974S2226.1,1112.309,2226.356,1111.79Zm2.792-4.026c-.195-.649-.324-.13-.324,1.1s.13,1.753.324,1.169A6.685,6.685,0,0,0,2229.148,1107.764Zm-2.986.454c.324,0,.585-.454.585-1.039,0-.844-.2-.909-.845-.325-.519.389-1.039.519-1.3.325-.195-.195-.26.13-.13.844.13.649.26,1.493.325,1.818.065.389.26.13.454-.454C2225.383,1108.738,2225.837,1108.219,2226.162,1108.219Zm20.517-4.35c-.26-.195-.455,0-.455.454s.195.649.455.454A.781.781,0,0,0,2246.679,1103.869Zm-53.5-7.467c-.129-.325-.779-.52-1.363-.585-.909,0-.844-.13.195-.584,1.1-.454.974-.584-.78-.584-2.6-.065-2.986,1.623-.519,2.273a2.123,2.123,0,0,1,1.688,1.493c0,.779.13.714.52-.26C2193.243,1097.441,2193.373,1096.661,2193.178,1096.4Zm15.907,1.3c-1.364-1.169-1.493-1.169-1.883-.065-.324.909-.584.519-1.169-1.429a21.357,21.357,0,0,1-.714-3.441c0-1.364-1.624-.519-1.688.909a12.333,12.333,0,0,1-.779,2.922,3.761,3.761,0,0,0-.389,2.078,15.433,15.433,0,0,0,4.22.325l3.831-.065Zm2.532,0c-.2-.519-.389-.325-.389.39-.065.714.13,1.1.324.844A1.315,1.315,0,0,0,2211.618,1097.7Zm-.649-2.272c.195-.454-.194-.584-1.039-.39-.779.195-1.364.649-1.364.974C2208.566,1096.856,2210.644,1096.4,2210.969,1095.428Zm40.775-3.506a2.809,2.809,0,0,0-2.078-.455c-1.623.195-1.623.195-.259,1.039a3.356,3.356,0,0,1,1.429,2.013c0,.649.26.519.649-.455A3.382,3.382,0,0,0,2251.743,1091.922Zm-10.908,1.558c-.26-.195-.455,0-.455.454s.194.649.455.455A.782.782,0,0,0,2240.836,1093.48Zm-46.164-2.013a1.676,1.676,0,0,0-1.429-1.233c-.649-.13-.844,0-.389.195,1.3.584.909,1.753-.52,1.364-1.558-.39-1.623-.195-.26,1.169C2193.308,1094.194,2194.931,1093.285,2194.672,1091.467Zm15.842,1.883c0-.779-3.7-2.662-4.155-2.143-.974.974-.2,2.013,1.752,2.273,1.1.13,2.143.325,2.273.325C2210.449,1093.87,2210.514,1093.675,2210.514,1093.35Zm-4.545-3.766c0-1.234-.844-.584-1.039.779-.065.519.13.844.454.584A1.688,1.688,0,0,0,2205.969,1089.584Zm43.956-.974c-.2-.519-.389-.325-.389.39-.065.714.129,1.1.324.844A1.315,1.315,0,0,0,2249.925,1088.61Zm-41.553.324a.78.78,0,0,0-.909,0c-.2.26,0,.454.454.454S2208.566,1089.195,2208.372,1088.935Zm-11.947-2.142c.26-.909,0-1.3-.779-1.3a3.013,3.013,0,0,1-1.818-.714c-.455-.455-.779-.2-.974,1.039-.26,1.364-.065,1.818,1.039,2.273C2195.58,1088.676,2195.97,1088.481,2196.425,1086.793Zm11.947.195c-.26-.195-.455,0-.455.455s.194.649.455.454A.782.782,0,0,0,2208.372,1086.987Zm-.779-1.493c.584,0,.779-.39.584-.974-.259-.52-.714-.974-1.1-.974s-.52.195-.26.39c.195.26,0,.844-.52,1.364a3.3,3.3,0,0,0-.974,1.688c0,.455.324.26.714-.325A2.094,2.094,0,0,1,2207.593,1085.494Z" transform="translate(-2026.391 -1066.665)" fill="#69635d"/>
    <path id="Caminho_11" data-name="Caminho 11" d="M3848.519,1112.294a.762.762,0,0,1-.39-1.039c.325-.519.129-.519-.454.065-1.234,1.1-3.182.974-3.182-.26,0-.714.39-.974,1.3-.714,1.883.519,1.558-.585-.649-2.143-1.1-.779-1.818-1.688-1.559-2.013.649-1.1-.324-3.831-1.363-3.831-.844,0-.974-1.428-.844-9.869.194-9.025.324-9.934,1.364-9.869.714.065,1.1-.325,1.1-1.3,0-.779,1.169-2.532,2.662-3.961l2.6-2.6,9.934.13,9.868.13,2.338,2.142a28.267,28.267,0,0,1,3.052,3.571c.973,1.883.908,6.687-.065,7.012-1.688.519-8.831.909-9.22.454a7.075,7.075,0,0,0-2.987-.195l-2.6.195.909-2.207c.649-1.428,1.3-2.078,2.012-1.948.779.13.974-.065.65-.649q-.584-.876.194-.195a6.05,6.05,0,0,1,.974,1.948c.2.779.324.519.259-.649-.129-1.948-.129-1.948-4.479-2.078-6.364-.195-6.364-.195-6.364,11.427,0,6.557.26,9.8.78,10.323a5.632,5.632,0,0,0,3.246.779c1.948,0,2.468-.26,2.468-1.169a3.291,3.291,0,0,1,.389-1.623c.649-.584,3.505.974,3.505,1.948,0,.519.26.779.65.519,1.038-.649,0-2.143-1.818-2.6-1.364-.325-1.493-.519-.714-1.039.649-.52.52-.585-.52-.26-.909.26-1.493.13-1.493-.26s1.038-.714,2.272-.714c2.273,0,3.052.844,1.494,1.558-.454.195-.26.26.454.195.844-.13,1.234-.584,1.1-1.3-.13-.974.454-1.1,4.74-1.1,3.181,0,4.8-.26,4.545-.649s.519-3.636,1.688-7.337c1.168-3.636,2.208-7.337,2.338-8.246s.519-1.688.909-1.818c.325-.13.584-1.1.584-2.142,0-1.3.325-1.883,1.039-1.883.779,0,.974.39.585,1.493-1.169,3.636-1.1,5.064.065,5.973,1.1.779,1.038.844-.585.52-1.493-.325-1.753-.13-1.753,1.234a5.67,5.67,0,0,1-1.3,3.116c-1.559,1.753-1.559,1.818-.389,2.987,2.012,1.948,3.376.844,3.9-3.181a17.471,17.471,0,0,1,1.233-3.7,59.605,59.605,0,0,0,2.078-6.3c.779-2.727,1.493-4.091,2.338-4.286a49.3,49.3,0,0,1,7.92,0l6.753.39,2.856,9.739c1.494,5.324,2.857,10.194,2.922,10.778a43.606,43.606,0,0,0,1.429,4.869c1.3,3.9,2.92,5.714,3.635,3.961.194-.649-.065-.974-.909-.974-.974,0-1.234-.455-1.168-2.6,0-1.428.259-2.4.584-2.207s.584-.13.584-.649c0-1.234,1.039-1.363,1.493-.195.2.39.389-3.571.389-8.83.065-7.857.26-9.675,1.039-9.934a2.552,2.552,0,0,0,.974-2.207c0-2.272.26-2.338,5.583-1.948l4.35.325,3.571,8.311,3.572,8.311,1.558-4.74a41.19,41.19,0,0,1,1.883-5c.13-.13.715.13,1.233.584,1.1.909.389,2.272-1.168,2.272-.974.065-.714,3.052.389,3.7.52.325.455.519-.324.519-.649,0-1.168.325-1.168.649,0,.39.649.649,1.493.649,1.233,0,1.753-.649,2.727-3.376a15.937,15.937,0,0,0,1.1-3.9c-.065-.325.195-.519.583-.519.325,0,.52-.26.325-.519-.2-.325.26-1.493.974-2.662s.974-1.948.583-1.688c-.389.195-.454,0-.259-.584s.65-.844.974-.649.584-.13.584-.649c0-.844.909-1.039,4.869-1.039h4.87v37.788l-4.285-.26c-3.052-.195-4.545-.585-5.129-1.364a2.6,2.6,0,0,0-1.559-1.1.667.667,0,0,1-.714-.649c0-.325.583-.65,1.3-.65,1.169,0,1.3-.454,1.3-4.545,0-3.506-.194-4.545-.909-4.545a1.37,1.37,0,0,1-1.169-1.1c-.2-.974-.325-.909-.649.325-.324,1.1-.13,1.428.909,1.428,1.169,0,1.169.065.2,1.039-2.4,2.4-3.117,4.091-2.273,5.129.454.585.649,1.169.454,1.428-.26.195-.584-.13-.844-.714-.65-1.623-1.428-1.234-2.273,1.234-.779,2.078-1.1,2.273-3.311,2.273-1.364,0-2.468-.26-2.468-.649,0-.325-.844-.454-1.948-.195-1.429.259-1.948.13-1.948-.52,0-.714-.129-.714-.649.065-.714,1.168-.909.974-2.143-2.6l-.974-2.922-.065,4.35-.065,4.415-13.634-.26c-7.532-.065-13.765-.324-13.895-.454a8.049,8.049,0,0,1-.715-1.883c-.455-1.493-.455-1.493.585-.454,1.233,1.233,2.012,1.493,1.364.454-.2-.325.195-.649.909-.649a1.616,1.616,0,0,1,1.558,1.168c.194.584.259-.13.13-1.688a13.056,13.056,0,0,0-.65-3.376c-.195-.39-3.246-.649-6.817-.649h-6.493l-.39,1.818c-.195.974-.584,2.662-.844,3.7l-.455,1.948-5.518-.13c-2.987-.065-6.3-.13-7.272-.13-1.038-.065-1.688-.325-1.429-.714.2-.325.13-.649-.194-.649-.389,0-.779.454-1.038.974-.26.844-2.078.974-10.584.909A95.908,95.908,0,0,1,3848.519,1112.294Zm28.178-6.3c-.13-.39-.324-.195-.324.389a2.188,2.188,0,0,1-1.688,1.558c-1.883.454-2.207,2.013-.454,2.337C3875.4,1110.541,3877.282,1107.425,3876.7,1106Zm39.217,3.831a1.014,1.014,0,0,0-1.039-.974c-.909,0-.909.2-.259.974a3.91,3.91,0,0,0,1.039.974C3915.784,1110.8,3915.914,1110.347,3915.914,1109.827Zm-3.441-.779c-.26-.2-.455,0-.455.454s.194.649.455.455A.781.781,0,0,0,3912.473,1109.048Zm18.7-2.078c.455-.779-1.428-2.662-2.6-2.662a3.255,3.255,0,0,1-1.882-1.039c-1.234-1.169-1.3-.974-.39,1.364.455,1.169.974,1.623,1.624,1.364a4.034,4.034,0,0,1,2.142.065c.908.39.844.519-.52.909-1.494.389-1.494.454-.2.519A2.35,2.35,0,0,0,3931.172,1106.97Zm-2.078-5.259c-.2-.714-.585-1.3-.844-1.3s-.714-1.233-.974-2.727c-.52-2.792-.52-2.792-.974-.844-.454,1.818-.519,1.883-.649.325-.13-1.234-.195-1.363-.454-.455-.454,1.883.389,4.35,1.494,4.35a1.552,1.552,0,0,1,1.3.974C3928.575,1103.464,3929.484,1103.2,3929.094,1101.711Zm-50.189-2.143a6.246,6.246,0,0,1,.974-3.311c1.429-1.883,1.234-2.337-1.3-2.337-1.884,0-2.143.195-1.818,1.169a4.166,4.166,0,0,0,1.1,1.558c.455.324.259.519-.39.519-1.493,0-1.493,1.039-.129,1.818a1.594,1.594,0,0,1,.714,2.013c-.194.714-.065,1.234.26.974A3.728,3.728,0,0,0,3878.9,1099.568Zm65.772-2.4c.2-.779,0-1.3-.519-1.3s-.714.52-.52,1.3a.753.753,0,1,0,1.039,0Zm-51.812-2.013c-.324-1.883-.259-2.6.26-2.272.455.324.585.065.325-.52-.325-.779,0-1.039,1.3-1.039,1.429,0,1.689-.26,1.624-1.753,0-1.818-1.1-5.065-1.169-3.7-.065.454-.78.974-1.688,1.169-1.624.39-2.4,2.272-3.571,8.375-.455,2.337-.455,2.4,1.428,2.4S3893.319,1097.75,3892.864,1095.154Zm6.168,2.142c0-.26-1.168-.389-2.6-.26a7.107,7.107,0,0,0-2.6.519,7.07,7.07,0,0,0,2.6.26C3897.864,1097.816,3899.033,1097.621,3899.033,1097.3Zm-.649-1.883a8.461,8.461,0,0,0-1.039-2.142c-.909-1.494-.909-1.494-.585-.13.324,1.1.13,1.429-.779,1.493-1.039,0-1.039.065.13.584C3897.8,1095.932,3898.384,1096,3898.384,1095.413Z" transform="translate(-3603.233 -1065.351)" fill="#69635d"/>
    <path id="Caminho_12" data-name="Caminho 12" d="M1157.405,1183.413c-.974-1.234-2.078-2.142-2.467-2.078a.677.677,0,0,1-.779-.649c0-.844-4.48-5.519-6.622-7.013-1.753-1.168-3.506-.649-2.987.844.26.844,0,.714-1.168-.324-1.234-1.234-1.364-1.623-.649-2.272.519-.584.714-.584.584-.065-.649,2.4,3.636-.065,8.83-5.129,2.662-2.6,5.584-5.389,6.558-6.233l1.753-1.493,1.753,1.948a6.007,6.007,0,0,0,2.727,2.013c.455,0-1.233,2.142-3.766,4.74l-4.675,4.675,3.9,4.156c2.078,2.272,4.026,3.96,4.285,3.766.26-.26.39-3.961.39-8.246-.065-6.1.13-7.791.779-7.791s.714.454.325,2.078c-.649,2.208-.195,5.064.909,5.908.519.39.454.649-.065.909-.454.13-.844,1.3-.844,2.532,0,1.623.26,2.142.844,1.818.649-.39.649-.26,0,.455a2.957,2.957,0,0,0-.844,1.753c0,1.039-5.194,5.908-6.3,5.974C1159.418,1185.686,1158.314,1184.646,1157.405,1183.413Z" transform="translate(-1079.439 -1144.132)" fill="#69635d"/>
  </g>
  <g id="layer103" transform="translate(0.929 0.032)">
    <path id="Caminho_13" data-name="Caminho 13" d="M186.042,969.8c-5.714-5.519-9.415-9.544-8.9-9.739,1.1-.455.974-1.494-.195-1.494a.888.888,0,0,0-.974.779q0,.779-.974-.195c-1.3-1.3-.649-5.129.909-5.194.779,0,.714-.13-.26-.584-1.1-.454-1.039-.584.649-.584,1.688-.065,3.636-1.753,12.531-10.648,5.779-5.843,10.518-10.843,10.518-11.1,0-.325-.454-.195-.974.26-.584.455-.974.519-.974.13,0-.974,1.688-1.428,4.934-1.428,3.052,0,3.376.26,7.532,5.519,1.1,1.364.909,1.623-7.6,10.453-5.324,5.454-8.765,9.545-8.765,10.324s2.6,3.7,6.817,7.662c3.766,3.506,6.817,6.882,6.817,7.531s-1.623,2.727-3.571,4.545l-3.636,3.441-2.922-2.467c-2.467-1.948-2.857-2.143-2.143-.844a8.08,8.08,0,0,0,1.493,1.948.486.486,0,0,1,0,.779C196.041,979.02,191.431,974.995,186.042,969.8Zm7.4,4.156c-.13-.13-1.883-1.623-3.831-3.376l-3.571-3.116,3.376,3.311a19.968,19.968,0,0,0,3.831,3.376Q193.639,974.151,193.444,973.956Z" transform="translate(-174.311 -930)" fill="#715e5d"/>
  </g>
  <g id="layer104" transform="translate(0.929)">
    <path id="Caminho_14" data-name="Caminho 14" d="M529.181,1266.286c-1.883-.195-3.052-.974-5.324-3.311L521,1259.923l9.025-9.09c5.843-5.844,9.09-9.609,9.09-10.454,0-.909-2.272-3.441-6.817-7.467-4.22-3.831-6.753-6.622-6.817-7.4,0-.779,1.493-2.792,3.441-4.74,3.052-3.052,3.571-3.311,4.35-2.4s.974.909,2.013-.065c1.1-.974,1.753-.454,11.752,8.9,5.843,5.454,10.973,10.648,11.427,11.492a4.664,4.664,0,0,1,.519,3.052c-.584,2.272-24.348,25-26.036,24.867C532.233,1266.546,530.544,1266.416,529.181,1266.286Z" transform="translate(-498.49 -1199.183)" fill="#666667"/>
    <path id="Caminho_15" data-name="Caminho 15" d="M5575,1123.978a8.7,8.7,0,0,0-2.92-.26c-1.1.065-2.079-.13-2.079-.389a31.255,31.255,0,0,1,1.624-4.545,24.727,24.727,0,0,0,1.623-4.87.936.936,0,0,1,.974-.844c.779,0,.844.26.39,1.234-.585.974-.39,1.169,1.1,1.1,1.1-.065,1.818-.454,1.948-1.169.13-.649-.065-1.169-.455-1.169a.667.667,0,0,1-.714-.649c0-.325.455-.649.975-.649a.888.888,0,0,1,.974.779c0,.974.714.26.909-.909a4.086,4.086,0,0,1,.52-1.493,15.46,15.46,0,0,0,.844-2.922,6.621,6.621,0,0,1,.975-2.6c.454-.324,2.727-6.623,2.4-6.882a7.2,7.2,0,0,0-1.753.519c-1.169.454-1.363.714-.714,1.1s.584.649-.325.974c-1.037.389-1.037.519.13,1.363.844.649.909.909.26.779-.521-.13-.779-.13-.455,0,1.168.714.324,1.428-1.1.844-1.494-.519-1.624-.39-2.727,2.987-.585,1.948-.91,3.7-.715,3.96.584.519-.779,2.143-1.818,2.143-.519,0-.649-.584-.454-1.623.129-.909.583-1.623.909-1.623s.389-.26.194-.649c-.194-.324-.065-.649.259-.649.39,0,.714-.844.714-1.948,0-1.039.325-1.948.779-1.948.39,0,.584-.195.325-.39-.39-.39,1.883-7.207,2.856-8.441.325-.39.39-.909.13-1.1-.194-.26-.065-.454.39-.454a1.481,1.481,0,0,1,1.1.974,2.167,2.167,0,0,0,1.881.974c1.234,0,1.559-.454,1.883-2.727.326-1.883.2-2.857-.389-3.247-.584-.324-.39-.519.585-.519a2.727,2.727,0,0,0,2.143-1.3c.389-.714.583-1.3.454-1.3-.194,0,.065-1.1.52-2.4l.844-2.467,5.584-.195a37.562,37.562,0,0,1,5.583.065c0,.26-1.428,3.961-2.531,6.623-.325.714-1.494,3.766-2.533,6.818-2.792,7.791-9.155,25.322-10,27.4-.585,1.623-.909,1.753-5.52,1.948C5577.921,1124.368,5575.39,1124.238,5575,1123.978Zm1.624-5.714c-.194-.195-.454.065-.584.52a1.828,1.828,0,0,1-1.558.779c-.65,0-1.234.324-1.234.649,0,.39.455.649.974.649a.937.937,0,0,1,.975.844c.065.39.454-.065.909-1.169C5576.558,1119.5,5576.818,1118.459,5576.623,1118.265Z" transform="translate(-5219.671 -1071.484)" fill="#666667"/>
    <path id="Caminho_16" data-name="Caminho 16" d="M192.47,972.453c-3.9-3.506-8.83-8.181-10.973-10.388-3.7-3.831-5.519-4.87-5.519-3.182q0,.779-.974-.195c-1.3-1.3-.649-5.129.909-5.194.779,0,.714-.13-.26-.584-1.1-.455-.974-.584.714-.584,1.688-.065,3.766-1.818,13.635-11.427,12.986-12.661,13.83-13.115,17.011-9.285,4.48,5.324,5,3.766-4.74,13.895-5.324,5.454-8.765,9.544-8.765,10.323s2.6,3.7,6.817,7.662c3.766,3.506,6.817,6.882,6.817,7.531,0,.974-6.428,7.856-7.337,7.856C199.677,978.881,196.366,976.024,192.47,972.453Zm-15.388-16.1c-.26-.195-.454,0-.454.455s.195.649.454.455A.78.78,0,0,0,177.082,956.351Z" transform="translate(-174.311 -929.504)" fill="#666667"/>
    <path id="Caminho_17" data-name="Caminho 17" d="M219.22,1399.735c-5.064-4.87-9.22-9.09-9.22-9.35.065-1.428,2.143,0,6.817,4.74,2.857,2.857,6.752,6.558,8.635,8.181,1.818,1.623,3.376,3.312,3.376,3.766a1.273,1.273,0,0,0,.844,1.169q.779.389-.195.389C228.959,1408.63,224.349,1404.6,219.22,1399.735Z" transform="translate(-207.683 -1359.967)" fill="#666667"/>
    <path id="Caminho_18" data-name="Caminho 18" d="M1536.688,1109.791c-.844-.13-1.493-.519-1.493-.844s-.519-.714-1.1-.909c-.649-.195-.39-.26.584-.13s1.623-.065,1.429-.325a2.1,2.1,0,0,0-1.623-.584c-.649,0-1.169-.195-1.1-.454a7,7,0,0,0-.455-2.338c-.39-1.364-.779-1.753-1.688-1.558-.714.195-1.234.064-1.234-.26s.584-.584,1.3-.584c1.234,0,1.3-.455,1.3-9.025,0-8.051-.13-9.09-1.1-9.349-1.1-.26-1.1-.324,0-.39.779-.065,1.1-.649,1.1-2.143a10.073,10.073,0,0,1,.974-3.766c1.233-2.142,1.169-2.4-.13-2.857-.649-.195-.065-.195,1.3,0,1.818.26,2.4.065,2.4-.649,0-1.493,3.312-1.818,13.18-1.363l9.22.455,2.792,2.662c2.532,2.467,2.727,2.922,2.727,6.1v3.441l-7.142-.065c-6.168-.065-7.142-.195-7.142-1.1,0-.844.13-.909.584-.26.39.649.649.584.909-.454a3.27,3.27,0,0,1,1.883-1.948c1.883-.779,1.948-.779-4.22-1.168-7.6-.455-7.6-.389-7.6,11.492,0,6.493.26,9.739.779,10.259,1.428,1.428,4.545.909,6.688-1.169,1.883-1.818,2.078-1.883,3.766-.974.974.519,1.623.649,1.428.324-.26-.39.13-.649.779-.649,1.818-.065-.259-1.1-3.051-1.558-1.234-.195-2.338-.649-2.467-1.039-.13-.325-.455-.52-.649-.39-.26.13-.844-.13-1.3-.649-.714-.779-.649-.909.195-.909.52,0,.974-.26.974-.584a7.115,7.115,0,0,1,.39-1.623c.26-.714,0-1.039-.909-1.039-1.883,0-2.4-1.1-.584-1.3.779-.065,4.934-.195,9.22-.26l7.791-.065.195,10.258.195,10.259-4.415-.195c-2.987-.13-4.35-.454-4.285-.974.13-.519-.39-.455-1.623.195s-3.961.909-9.544.844C1541.622,1110.115,1537.467,1109.92,1536.688,1109.791Z" transform="translate(-1441.978 -1062.815)" fill="#666667"/>
    <path id="Caminho_19" data-name="Caminho 19" d="M2158.377,1113.608c-2.078-.325-2.013-1.818.065-1.753,1.3,0,1.3-.26,1.364-15.907.064-8.765-.13-16.3-.455-16.751a4.623,4.623,0,0,0-2.4-1.039l-1.948-.26,2.142-.13c1.1,0,2.078-.325,2.078-.714s2.143-.65,5.194-.65h5.194l.13,14.609.195,14.674h7.142c3.961.065,7.467.065,7.856,0,.65-.065,1.623-2.272,1.818-4.09a3.264,3.264,0,0,1,.909-1.234c.649-.714.779-.519.844.714,0,.909.194,1.234.39.844a1.231,1.231,0,0,1,2.337,0c.2.39.39,0,.39-.974.065-1.494-.195-1.818-1.493-1.818-1.364,0-1.559-.26-1.428-2.4.2-2.922,2.273-10.453,3.052-10.973.26-.13.325-.779.13-1.364-.26-.714-.195-.909.325-.584s.779-.065.779-1.039a5.586,5.586,0,0,1,.973-2.857c.909-1.169.909-1.169.974.519,0,.974-.259,1.948-.649,2.143-1.039.649-.715,1.623.389,1.169a1.3,1.3,0,0,1,1.558.52c.52.714.649.714.909-.065.129-.519.584-1.948.973-3.051a9.948,9.948,0,0,0,.39-3.441c-.13-.714,0-1.169.324-.974a.594.594,0,0,0,.844-.13c.324-.519,1.623-.519,10.648-.325l4.675.13,1.623,5.389c.909,2.922,2.792,9.414,4.221,14.349,1.493,5,2.987,9.349,3.376,9.739.584.52.649.454.324-.13-.649-1.038.065-4.025.909-4.025.324,0,.779.584.974,1.3s.78,1.3,1.3,1.3a1.44,1.44,0,0,1,1.168,1.169c.195.584.325-5.649.389-13.959l.065-15.063,1.494-.195a35.116,35.116,0,0,1,5.324,0l3.96.26,2.792,5.389a47.309,47.309,0,0,0,4.22,6.947c.715.844,1.1,1.169.715.649a13.492,13.492,0,0,1-.715-4.415c-.13-3.311,0-3.506,1.429-3.506,1.364,0,1.558.324,1.558,2.6,0,1.883.26,2.6.974,2.6.779,0,.974-1.039.974-5.194V1076.4h9.09v37.658h-4.545c-3.312,0-4.545-.26-4.545-.844a4.794,4.794,0,0,0-1.494-2.272c-1.363-1.3-1.558-1.3-1.428-.325a4.066,4.066,0,0,0,.584,2.013c.325.519-.065.779-1.234.779-1.493,0-1.623-.195-1.493-2.272.065-1.428.455-2.272,1.039-2.272s.779-.39.52-1.039a7.1,7.1,0,0,1-.389-1.624c0-.324-.2-.519-.454-.455a11.166,11.166,0,0,1-2.987-.39c-2.662-.519-2.986-1.882-.584-2.207.78-.13,1.428-.519,1.428-.844,0-.39-.194-.52-.455-.39-.324.195-.974-.13-1.493-.714-.844-.909-.779-.974.2-.584.584.195,1.1.13,1.1-.195,0-.389-.844-.649-1.948-.649q-1.948,0-1.948-.974a1,1,0,0,1,.974-.974c.52,0,.974-.26.974-.649a.712.712,0,0,0-.715-.649c-.324,0-.455-.325-.259-.714.324-.454-.2-.584-1.364-.454l-1.883.195-.195,9.35-.195,9.35-5.324-.455a63.609,63.609,0,0,0-6.623-.325c-5.389.39-10.323.13-10.583-.584-.13-.455-.455-.649-.78-.455s-.454-.389-.325-1.3a4.645,4.645,0,0,0-.974-3.052c-.974-1.233-1.818-1.428-7.142-1.428l-5.973-.065-1.1,3.571-1.1,3.571-19.089.065C2168.831,1113.868,2159.351,1113.738,2158.377,1113.608Zm29.867-2.272c-.195-.52-.39-.325-.39.39-.065.714.13,1.1.324.844A1.313,1.313,0,0,0,2188.244,1111.335Zm38.112.455c.2-.52.065-.974-.259-.974-.39,0-.649.454-.649.974s.13.974.26.974S2226.1,1112.309,2226.356,1111.79Zm2.792-4.026c-.195-.649-.324-.13-.324,1.1s.13,1.753.324,1.169A6.685,6.685,0,0,0,2229.148,1107.764Zm-2.986.454c.324,0,.585-.454.585-1.039,0-.844-.2-.909-.845-.325-.519.389-1.039.519-1.3.325-.195-.195-.26.13-.13.844.13.649.26,1.493.325,1.818.065.389.26.13.454-.454C2225.383,1108.738,2225.837,1108.219,2226.162,1108.219Zm20.517-4.35c-.26-.195-.455,0-.455.454s.195.649.455.454A.781.781,0,0,0,2246.679,1103.869Zm-53.5-7.467c-.129-.325-.779-.52-1.363-.585-.909,0-.844-.13.195-.584,1.1-.454.974-.584-.78-.584-2.6-.065-2.986,1.623-.519,2.273a2.123,2.123,0,0,1,1.688,1.493c0,.779.13.714.52-.26C2193.243,1097.441,2193.373,1096.661,2193.178,1096.4Zm15.907,1.3c-1.364-1.169-1.493-1.169-1.883-.065-.324.909-.584.519-1.169-1.429a21.357,21.357,0,0,1-.714-3.441c0-.519-.325-.779-.779-.65-.714.26-2.532,6.1-2.013,6.623a20.241,20.241,0,0,0,4.156.26l3.831-.065Zm2.532,0c-.2-.519-.389-.325-.389.39-.065.714.13,1.1.324.844A1.315,1.315,0,0,0,2211.618,1097.7Zm-.649-2.272c.195-.454-.194-.584-1.039-.39-.779.195-1.364.649-1.364.974C2208.566,1096.856,2210.644,1096.4,2210.969,1095.428Zm40.775-3.506a2.809,2.809,0,0,0-2.078-.455c-1.623.195-1.623.195-.259,1.039a3.356,3.356,0,0,1,1.429,2.013c0,.649.26.519.649-.455A3.382,3.382,0,0,0,2251.743,1091.922Zm-10.908,1.558c-.26-.195-.455,0-.455.454s.194.649.455.455A.782.782,0,0,0,2240.836,1093.48Zm-46.164-2.013a1.676,1.676,0,0,0-1.429-1.233c-.649-.13-.844,0-.389.195,1.3.584.909,1.753-.52,1.364-1.558-.39-1.623-.195-.26,1.169C2193.308,1094.194,2194.931,1093.285,2194.672,1091.467Zm15.842,1.883c0-.779-3.7-2.662-4.155-2.143-.974.974-.2,2.013,1.752,2.273,1.1.13,2.143.325,2.273.325C2210.449,1093.87,2210.514,1093.675,2210.514,1093.35Zm-4.545-3.766c0-1.234-.844-.584-1.039.779-.065.519.13.844.454.584A1.688,1.688,0,0,0,2205.969,1089.584Zm43.956-.974c-.2-.519-.389-.325-.389.39-.065.714.129,1.1.324.844A1.315,1.315,0,0,0,2249.925,1088.61Zm-41.553.324a.78.78,0,0,0-.909,0c-.2.26,0,.454.454.454S2208.566,1089.195,2208.372,1088.935Zm-11.947-2.142c.26-.909,0-1.3-.779-1.3a3.013,3.013,0,0,1-1.818-.714c-.455-.455-.779-.2-.974,1.039-.26,1.364-.065,1.818,1.039,2.273C2195.58,1088.676,2195.97,1088.481,2196.425,1086.793Zm11.947.195c-.26-.195-.455,0-.455.455s.194.649.455.454A.782.782,0,0,0,2208.372,1086.987Zm-.779-1.493c.584,0,.779-.39.584-.974-.259-.52-.714-.974-1.1-.974s-.52.195-.26.39c.195.26,0,.844-.52,1.364a3.3,3.3,0,0,0-.974,1.688c0,.455.324.26.714-.325A2.094,2.094,0,0,1,2207.593,1085.494Z" transform="translate(-2026.399 -1066.633)" fill="#666667"/>
    <path id="Caminho_20" data-name="Caminho 20" d="M2744.281,1230.65a1.829,1.829,0,0,1,1.364-.649c.519,0,.908.325.908.649,0,.39-.583.649-1.363.649C2744.475,1231.3,2744.086,1231.039,2744.281,1230.65Z" transform="translate(-2577.372 -1210.49)" fill="#666667"/>
    <path id="Caminho_21" data-name="Caminho 21" d="M3848.519,1112.294a.762.762,0,0,1-.39-1.039c.325-.519.129-.519-.454.065-1.234,1.1-3.182.974-3.182-.26,0-.714.39-.974,1.3-.714,1.883.519,1.558-.585-.649-2.143-1.1-.779-1.818-1.688-1.559-2.013.649-1.1-.324-3.831-1.363-3.831-.844,0-.974-1.428-.844-9.869.194-9.025.324-9.934,1.364-9.869.714.065,1.1-.325,1.1-1.3,0-.779,1.169-2.532,2.662-3.961l2.6-2.6,9.934.13,9.868.13,2.338,2.142a28.267,28.267,0,0,1,3.052,3.571c.973,1.883.908,6.687-.065,7.012-1.688.519-8.831.909-9.22.454a7.075,7.075,0,0,0-2.987-.195l-2.6.195.909-2.207c.649-1.428,1.3-2.078,2.012-1.948.779.13.974-.065.65-.649q-.584-.876.194-.195a6.05,6.05,0,0,1,.974,1.948c.2.779.324.519.259-.649-.129-1.948-.129-1.948-4.349-2.078-6.688-.195-6.494-.454-6.494,11.038,0,6.882.26,10.194.78,10.713a5.632,5.632,0,0,0,3.246.779c1.948,0,2.468-.26,2.468-1.169a3.291,3.291,0,0,1,.389-1.623c.649-.584,3.505.974,3.505,1.948,0,.519.26.779.65.519,1.038-.649,0-2.143-1.818-2.6-1.364-.325-1.493-.519-.714-1.039.649-.52.52-.585-.52-.26-.909.26-1.493.13-1.493-.26s1.038-.714,2.272-.714c2.273,0,3.052.844,1.494,1.558-.454.195-.26.26.454.195.844-.13,1.234-.584,1.1-1.3-.13-.974.454-1.1,4.74-1.1,3.181,0,4.8-.26,4.545-.649s.519-3.636,1.688-7.337c1.168-3.636,2.208-7.337,2.338-8.246s.519-1.688.909-1.818c.325-.13.584-1.1.584-2.142,0-1.3.325-1.883,1.039-1.883.779,0,.974.39.585,1.493-1.169,3.636-1.1,5.064.065,5.973,1.1.779,1.038.844-.585.52-1.493-.325-1.753-.13-1.753,1.234a5.67,5.67,0,0,1-1.3,3.116c-1.559,1.753-1.559,1.818-.389,2.987,2.012,1.948,3.376.844,3.9-3.181a17.471,17.471,0,0,1,1.233-3.7,59.605,59.605,0,0,0,2.078-6.3c.779-2.727,1.493-4.091,2.338-4.286a49.3,49.3,0,0,1,7.92,0l6.753.39,2.856,9.739c1.494,5.324,2.857,10.194,2.922,10.778a43.606,43.606,0,0,0,1.429,4.869c1.3,3.9,2.92,5.714,3.635,3.961.194-.649-.065-.974-.909-.974-.974,0-1.234-.455-1.168-2.6,0-1.428.259-2.4.584-2.207s.584-.13.584-.649c0-1.234,1.039-1.363,1.493-.195.2.39.389-3.571.389-8.83.065-7.857.26-9.675,1.039-9.934a2.552,2.552,0,0,0,.974-2.207c0-2.272.26-2.338,5.583-1.948l4.35.325,3.571,8.311,3.572,8.311,1.558-4.74a41.19,41.19,0,0,1,1.883-5c.13-.13.715.13,1.233.584,1.1.909.389,2.272-1.168,2.272-.974.065-.714,3.052.389,3.7.52.325.455.519-.324.519-.649,0-1.168.325-1.168.649,0,.39.649.649,1.493.649,1.233,0,1.753-.649,2.727-3.376a15.937,15.937,0,0,0,1.1-3.9c-.065-.325.195-.519.583-.519.325,0,.52-.26.325-.519-.2-.325.26-1.493.974-2.662s.974-1.948.583-1.688c-.389.195-.454,0-.259-.584s.65-.844.974-.649.584-.13.584-.649c0-.844.909-1.039,4.869-1.039h4.87v37.788l-4.285-.26c-3.052-.195-4.545-.585-5.129-1.364a2.6,2.6,0,0,0-1.559-1.1.667.667,0,0,1-.714-.649c0-.325.583-.65,1.3-.65,1.169,0,1.3-.454,1.3-4.545,0-3.506-.194-4.545-.909-4.545a1.37,1.37,0,0,1-1.169-1.1c-.2-.974-.325-.909-.649.325-.324,1.1-.13,1.428.909,1.428,1.169,0,1.169.065.2,1.039-2.4,2.4-3.117,4.091-2.273,5.129.454.585.649,1.169.454,1.428-.26.195-.584-.13-.844-.714-.65-1.623-1.428-1.234-2.273,1.234-.779,2.078-1.1,2.273-3.311,2.273-1.364,0-2.468-.26-2.468-.649,0-.325-.844-.454-1.948-.195-1.429.259-1.948.13-1.948-.52,0-.714-.129-.714-.649.065-.714,1.168-.909.974-2.143-2.6l-.974-2.922-.065,4.35-.065,4.415-13.634-.26c-7.532-.065-13.765-.324-13.895-.454a8.049,8.049,0,0,1-.715-1.883c-.455-1.493-.455-1.493.585-.454,1.233,1.233,2.012,1.493,1.364.454-.2-.325.195-.649.909-.649a1.616,1.616,0,0,1,1.558,1.168c.194.584.259-.13.13-1.688a13.056,13.056,0,0,0-.65-3.376c-.195-.39-3.246-.649-6.817-.649h-6.493l-.39,1.818c-.195.974-.584,2.662-.844,3.7l-.455,1.948-5.518-.13c-2.987-.065-6.3-.13-7.272-.13-1.038-.065-1.688-.325-1.429-.714.2-.325.13-.649-.194-.649-.389,0-.779.454-1.038.974-.26.844-2.078.974-10.584.909A95.908,95.908,0,0,1,3848.519,1112.294Zm28.178-6.3c-.13-.39-.324-.195-.324.389a2.188,2.188,0,0,1-1.688,1.558c-1.883.454-2.207,2.013-.454,2.337C3875.4,1110.541,3877.282,1107.425,3876.7,1106Zm39.217,3.831a1.014,1.014,0,0,0-1.039-.974c-.909,0-.909.2-.259.974a3.91,3.91,0,0,0,1.039.974C3915.784,1110.8,3915.914,1110.347,3915.914,1109.827Zm-3.441-.779c-.26-.2-.455,0-.455.454s.194.649.455.455A.781.781,0,0,0,3912.473,1109.048Zm18.7-2.078c.455-.779-1.428-2.662-2.6-2.662a3.255,3.255,0,0,1-1.882-1.039c-1.234-1.169-1.3-.974-.39,1.364.455,1.169.974,1.623,1.624,1.364a4.034,4.034,0,0,1,2.142.065c.908.39.844.519-.52.909-1.494.389-1.494.454-.2.519A2.35,2.35,0,0,0,3931.172,1106.97Zm-2.078-5.259c-.2-.714-.585-1.3-.844-1.3s-.714-1.233-.974-2.727c-.52-2.792-.52-2.792-.974-.844-.454,1.818-.519,1.883-.649.325-.13-1.234-.195-1.363-.454-.455-.454,1.883.389,4.35,1.494,4.35a1.552,1.552,0,0,1,1.3.974C3928.575,1103.464,3929.484,1103.2,3929.094,1101.711Zm-50.189-2.143a6.246,6.246,0,0,1,.974-3.311c1.429-1.883,1.234-2.337-1.3-2.337-1.884,0-2.143.195-1.818,1.169a4.166,4.166,0,0,0,1.1,1.558c.455.324.259.519-.39.519-1.493,0-1.493,1.039-.129,1.818a1.594,1.594,0,0,1,.714,2.013c-.194.714-.065,1.234.26.974A3.728,3.728,0,0,0,3878.9,1099.568Zm65.772-2.4c.2-.779,0-1.3-.519-1.3s-.714.52-.52,1.3a.753.753,0,1,0,1.039,0Zm-51.812-2.013c-.324-1.883-.259-2.6.26-2.272.455.324.585.065.325-.52-.325-.779,0-1.039,1.3-1.039,1.429,0,1.689-.26,1.624-1.753,0-1.818-1.1-5.065-1.169-3.7-.065.454-.78.974-1.688,1.169-1.624.39-2.4,2.272-3.571,8.375-.455,2.337-.455,2.4,1.428,2.4S3893.319,1097.75,3892.864,1095.154Zm6.168,2.142c0-.26-1.168-.389-2.6-.26a7.107,7.107,0,0,0-2.6.519,7.07,7.07,0,0,0,2.6.26C3897.864,1097.816,3899.033,1097.621,3899.033,1097.3Zm-.649-1.883a8.461,8.461,0,0,0-1.039-2.142c-.909-1.494-.909-1.494-.585-.13.324,1.1.13,1.429-.779,1.493-1.039,0-1.039.065.13.584C3897.8,1095.932,3898.384,1096,3898.384,1095.413Z" transform="translate(-3603.242 -1065.319)" fill="#666667"/>
    <path id="Caminho_22" data-name="Caminho 22" d="M4620,1284.384a4.414,4.414,0,0,1,.649-1.818c.521-.779.65-.714.65.454,0,.779-.259,1.623-.65,1.818C4620.326,1285.033,4620,1284.838,4620,1284.384Z" transform="translate(-4331.354 -1259.159)" fill="#666667"/>
    <path id="Caminho_23" data-name="Caminho 23" d="M4650,1282.37c0-.584.324-.909.779-.779,1.169.39,1.363,1.818.259,1.818A1.025,1.025,0,0,1,4650,1282.37Z" transform="translate(-4359.405 -1258.704)" fill="#666667"/>
    <path id="Caminho_24" data-name="Caminho 24" d="M2151,1582.326c.065-1.558.194-2.207.389-1.493.455,1.883,1.493,2.792,1.493,1.3,0-.649.195-.974.455-.779.52.52-1.1,3.7-1.883,3.7C2151.195,1585.053,2151,1583.82,2151,1582.326Z" transform="translate(-2022.658 -1538.273)" fill="#666667"/>
    <path id="Caminho_25" data-name="Caminho 25" d="M3003.712,1625.108a.789.789,0,0,1,.324-1.039c.325-.2.649.065.649.584C3004.686,1625.822,3004.3,1626.017,3003.712,1625.108Z" transform="translate(-2819.921 -1578.912)" fill="#666667"/>
    <path id="Caminho_26" data-name="Caminho 26" d="M5361,1595.815c0-1.883.065-2.078.648-1.1a2.061,2.061,0,0,1,0,2.272C5361.065,1597.893,5361,1597.7,5361,1595.815Z" transform="translate(-5024.241 -1550.983)" fill="#666667"/>
    <path id="Caminho_27" data-name="Caminho 27" d="M3621.813,1622.073c-.26-.454-.2-.519.259-.26.78.454,1.039,1.039.52,1.039C3622.4,1622.852,3622.072,1622.527,3621.813,1622.073Z" transform="translate(-3397.832 -1576.721)" fill="#666667"/>
    <path id="Caminho_28" data-name="Caminho 28" d="M3870,1622.372c0-.454.195-.649.454-.454a.781.781,0,0,1,0,.909C3870.2,1623.021,3870,1622.826,3870,1622.372Z" transform="translate(-3630.048 -1576.89)" fill="#666667"/>
    <path id="Caminho_29" data-name="Caminho 29" d="M1550,1610.65a.711.711,0,0,1,.714-.649c.325,0,.455.325.26.649-.195.39-.519.649-.714.649C1550.13,1611.3,1550,1611.039,1550,1610.65Z" transform="translate(-1460.68 -1565.817)" fill="#666667"/>
    <path id="Caminho_30" data-name="Caminho 30" d="M1492.466,1498.858c-1.753-1.883-1.818-3.765-.13-5.324,1.1-1.039,1.3-1.039,1.3-.13a1.676,1.676,0,0,1-.649,1.428c-1.039.649-.779,3.571.325,3.571a1,1,0,0,1,.974.974C1494.284,1500.676,1494.089,1500.611,1492.466,1498.858Z" transform="translate(-1405.613 -1456.168)" fill="#666667"/>
    <path id="Caminho_31" data-name="Caminho 31" d="M3805.764,1556.777c-.2-.779-.585-1.3-.844-1.1a.657.657,0,0,1-.909-.26.744.744,0,0,1,.194-1.039c.779-.455,3.052,2.792,2.4,3.376C3806.347,1558.01,3806.023,1557.556,3805.764,1556.777Z" transform="translate(-3568.213 -1513.762)" fill="#666667"/>
    <path id="Caminho_32" data-name="Caminho 32" d="M3030,1575.533c0-.584.389-.779.974-.584.519.26.974.454.974.584s-.455.324-.974.584C3030.39,1576.312,3030,1576.117,3030,1575.533Z" transform="translate(-2844.587 -1532.973)" fill="#666667"/>
    <path id="Caminho_33" data-name="Caminho 33" d="M6037.663,1181.776l-1.753-1.753-1.233,1.558-1.234,1.493-1.688-2.272a10.88,10.88,0,0,1-1.752-2.727c0-.26,1.1-.389,2.467-.324,2.727.195,4.025-.325,4.025-1.753,0-.584-.65-.909-1.753-.909-1.623,0-1.688,0-.519-1.3a3.869,3.869,0,0,1,2.143-1.3c.583,0,.844-.2.583-.39-.2-.26.065-.844.584-1.363s.78-1.169.585-1.493c-.195-.26.259-.649.974-.844,1.558-.39,1.753-2.4.259-2.4-.52,0-.844-.26-.584-.649.2-.325-.454-1.039-1.428-1.558-2.533-1.3-2.467-3.052.194-5.649l2.208-2.143,6.818,6.753,6.817,6.817-7.013,7.012-6.947,6.947Zm4.545-10.908,1.428-1.623-2.143.065c-1.1.065-1.558.195-.909.39,1.3.325,1.428.909.325,2.013-.455.455-.65.779-.455.779A6.345,6.345,0,0,0,6042.208,1170.869Z" transform="translate(-5649.805 -1141.294)" fill="#666667"/>
    <path id="Caminho_34" data-name="Caminho 34" d="M1284.4,1504.3c-1.493-2.013-1.558-3.376-.065-1.558a1.36,1.36,0,0,0,1.948.325c1.428-.779,2.337.974,1.234,2.338C1286.473,1506.7,1286.083,1506.569,1284.4,1504.3Z" transform="translate(-1211.242 -1464.723)" fill="#666667"/>
    <path id="Caminho_35" data-name="Caminho 35" d="M1157.47,1183.413c-.974-1.234-2.078-2.207-2.467-2.078a.7.7,0,0,1-.844-.649c0-.844-4.48-5.519-6.622-7.013-1.753-1.168-3.506-.649-2.987.844.26.844,0,.714-1.168-.324-1.234-1.234-1.364-1.623-.649-2.272.519-.584.714-.584.584-.065-.649,2.4,3.636-.065,8.83-5.129,2.662-2.6,5.584-5.389,6.558-6.233l1.753-1.493,1.753,1.948a6.007,6.007,0,0,0,2.727,2.013c.455,0-1.233,2.142-3.766,4.74l-4.675,4.675,3.9,4.156c2.078,2.272,4.026,3.96,4.285,3.766.26-.26.39-3.961.39-8.246-.065-6.1.13-7.791.779-7.791s.714.454.325,2.078c-.649,2.208-.195,5.064.909,5.908.519.39.454.649-.065.909-.454.13-.844,1.3-.844,2.532,0,1.623.26,2.142.844,1.818.649-.39.649-.26,0,.455a2.957,2.957,0,0,0-.844,1.753c0,1.039-5.129,5.908-6.233,5.974C1159.483,1185.686,1158.38,1184.646,1157.47,1183.413Z" transform="translate(-1079.447 -1144.1)" fill="#666667"/>
    <path id="Caminho_36" data-name="Caminho 36" d="M2154,1210.39c0-8.051.13-11.3.195-7.272.13,3.96.13,10.583,0,14.609C2154.131,1221.688,2154,1218.441,2154,1210.39Z" transform="translate(-2025.464 -1183.738)" fill="#666667"/>
    <path id="Caminho_37" data-name="Caminho 37" d="M3800,1182.012c.065-7.207.324-12.012.714-12.012s.584,4.675.519,12.012c-.064,6.818-.325,12.012-.649,12.012C3800.2,1194.023,3800,1188.959,3800,1182.012Z" transform="translate(-3564.593 -1154.385)" fill="#666667"/>
    <path id="Caminho_38" data-name="Caminho 38" d="M3840,1520.65c0-.325.455-.649.974-.649s.975.325.975.649c0,.389-.455.649-.975.649S3840,1521.039,3840,1520.65Z" transform="translate(-3601.995 -1481.661)" fill="#666667"/>
    <path id="Caminho_39" data-name="Caminho 39" d="M1255.581,1461.363c-.26-1.1-.065-1.364,1.3-1.364.844,0,1.493.325,1.363.714a.744.744,0,0,1-.779.584c-.325-.065-.779.26-1.039.649C1256.1,1462.467,1255.841,1462.208,1255.581,1461.363Z" transform="translate(-1185.284 -1425.556)" fill="#666667"/>
    <path id="Caminho_40" data-name="Caminho 40" d="M3450.455,1423.533a2.079,2.079,0,0,1-.454-1.429c.065-.844.2-.844.715.13C3451.429,1423.468,3451.235,1424.377,3450.455,1423.533Z" transform="translate(-3237.317 -1389.544)" fill="#666667"/>
    <path id="Caminho_41" data-name="Caminho 41" d="M1760,1406.061c0-1.493.13-1.558.974-.649a3.156,3.156,0,0,1,.974,1.623c0,.389-.455.714-.974.714C1760.39,1407.75,1760,1407.1,1760,1406.061Z" transform="translate(-1657.045 -1373.955)" fill="#666667"/>
    <path id="Caminho_42" data-name="Caminho 42" d="M3230.547,1165.128c-.715-.714-.52-15.128.194-15.128.39,0,.65,3.051.65,7.791a70.929,70.929,0,0,1-.2,7.791A1.18,1.18,0,0,1,3230.547,1165.128Z" transform="translate(-3031.693 -1135.684)" fill="#666667"/>
    <path id="Caminho_43" data-name="Caminho 43" d="M1760,1350.974c0-.519.26-.974.649-.974.325,0,.455.454.26.974-.26.52-.519.974-.649.974S1760,1351.493,1760,1350.974Z" transform="translate(-1657.045 -1322.698)" fill="#666667"/>
    <path id="Caminho_44" data-name="Caminho 44" d="M4915.259,1174.9a40.557,40.557,0,0,1-.193-6.428c.714-.779.972.974.779,6.493l-.2,6.1Z" transform="translate(-4607.198 -1152.792)" fill="#666667"/>
    <path id="Caminho_45" data-name="Caminho 45" d="M1162.371,1320.649c.195-.325.52-.649.714-.649s.13.324-.065.649c-.195.39-.519.649-.714.649S1162.176,1321.039,1162.371,1320.649Z" transform="translate(-1098.048 -1294.646)" fill="#666667"/>
    <path id="Caminho_46" data-name="Caminho 46" d="M6100,1292.371c0-.454.195-.649.455-.454a.781.781,0,0,1,0,.909C6100.195,1293.021,6100,1292.826,6100,1292.371Z" transform="translate(-5715.258 -1268.316)" fill="#666667"/>
    <path id="Caminho_47" data-name="Caminho 47" d="M1212.382,1232.683c2.467-2.532,3.831-2.922,1.428-.39a7.411,7.411,0,0,0-1.623,2.207c0,.2-.454.39-.974.39C1210.629,1234.891,1211.018,1234.111,1212.382,1232.683Z" transform="translate(-1143.644 -1211.029)" fill="#666667"/>
    <path id="Caminho_48" data-name="Caminho 48" d="M200,1209.026a19.141,19.141,0,0,1,2.143-2.143L204.22,1205l-1.883,2.143C200.519,1209.091,200,1209.545,200,1209.026Z" transform="translate(-198.332 -1187.113)" fill="#666667"/>
    <path id="Caminho_49" data-name="Caminho 49" d="M6050.456,1243.42a1.564,1.564,0,0,1-.455-1.1c0-.389.325-.325.778.13.39.39.585.909.455,1.1A.546.546,0,0,1,6050.456,1243.42Z" transform="translate(-5668.506 -1221.767)" fill="#666667"/>
    <path id="Caminho_50" data-name="Caminho 50" d="M5749.325,1136.7a7.055,7.055,0,0,1,1.363-2.987,2.469,2.469,0,0,0,.584-2.338c-.325-1.169-.325-1.169.65,0,1.168,1.429,1.364,2.6.39,2.013-.326-.195-.649.13-.649.844a5.273,5.273,0,0,1-1.364,2.792l-1.3,1.493Z" transform="translate(-5387.047 -1117.45)" fill="#666667"/>
    <path id="Caminho_51" data-name="Caminho 51" d="M6043.683,1200.649c.193-.325.519-.649.714-.649.13,0,.26.325.26.649a.668.668,0,0,1-.716.649C6043.618,1201.3,6043.488,1201.039,6043.683,1200.649Z" transform="translate(-5662.512 -1182.437)" fill="#666667"/>
    <path id="Caminho_52" data-name="Caminho 52" d="M1491.859,1146.826c-.195-.325-.195-.649.13-.649.26,0,.065-.325-.454-.649-.844-.52-.779-.649.195-.649a1.249,1.249,0,0,0,1.169-1.1c0-.714.195-.844.39-.324a1.417,1.417,0,0,0,1.234.779c1.234,0,1.169.39-.39,1.948C1492.638,1147.671,1492.443,1147.735,1491.859,1146.826Z" transform="translate(-1405.461 -1129.264)" fill="#666667"/>
    <path id="Caminho_53" data-name="Caminho 53" d="M4461.64,1171.623c-1.1-1.234-1.039-1.623.13-1.623.519,0,.972.584.972,1.3C4462.743,1172.792,4462.679,1172.856,4461.64,1171.623Z" transform="translate(-4182.536 -1154.385)" fill="#666667"/>
    <path id="Caminho_54" data-name="Caminho 54" d="M3823.712,1123.714a2.555,2.555,0,0,1,.324-1.948c.909-1.688,1.3-1.688.844,0-.2.714,0,1.3.39,1.3a.712.712,0,0,1,.715.649C3825.984,1124.558,3824.231,1124.558,3823.712,1123.714Z" transform="translate(-3586.681 -1108.099)" fill="#666667"/>
    <path id="Caminho_55" data-name="Caminho 55" d="M5319,1082c1.233-2.922,2.467-4.286,2.467-2.6,0,.39.519.649,1.168.714.844,0,.91.13.129.39a5.075,5.075,0,0,0-2.855,3.311c-.261.779-.909,1.428-1.364,1.428C5317.829,1085.248,5317.959,1084.534,5319,1082Z" transform="translate(-4984.121 -1068.984)" fill="#666667"/>
    <path id="Caminho_56" data-name="Caminho 56" d="M4911.919,1150.9a.779.779,0,0,1,.909,0c.2.26,0,.454-.455.454S4911.725,1151.156,4911.919,1150.9Z" transform="translate(-4604.247 -1136.385)" fill="#666667"/>
    <path id="Caminho_57" data-name="Caminho 57" d="M4913.883,1082.338c0-.909.391-1.428.909-1.234.39.195.78,0,.78-.39s.454-.714,1.037-.714c.715,0,.909.325.651,1.039a7.233,7.233,0,0,0-.391,1.753c0,.454-.26.39-.648-.195-.521-.844-.649-.78-.649.195a1.025,1.025,0,0,1-.909,1.1C4914.143,1083.9,4913.819,1083.312,4913.883,1082.338Z" transform="translate(-4606.146 -1070.229)" fill="#666667"/>
    <path id="Caminho_58" data-name="Caminho 58" d="M3572.712,1094.434a1.356,1.356,0,0,1,.324-1.428c.52-.52.714-.325.714.714C3573.75,1095.278,3573.426,1095.538,3572.712,1094.434Z" transform="translate(-3351.978 -1082.13)" fill="#666667"/>
    <path id="Caminho_59" data-name="Caminho 59" d="M5800,1101.039c0-.584.324-1.039.65-1.039a.6.6,0,0,1,.649.584,1.234,1.234,0,0,1-.649,1.039C5800.326,1101.818,5800,1101.559,5800,1101.039Z" transform="translate(-5434.738 -1088.93)" fill="#666667"/>
    <path id="Caminho_60" data-name="Caminho 60" d="M3862.372,1090.65c.194-.325.519-.649.714-.649s.13.324-.065.649c-.194.39-.519.649-.713.649S3862.176,1091.039,3862.372,1090.65Z" transform="translate(-3622.743 -1079.58)" fill="#666667"/>
    <path id="Caminho_61" data-name="Caminho 61" d="M5833.773,1101.307a1.318,1.318,0,0,1,1.235.065c.26.195-.13.39-.844.325C5833.449,1101.7,5833.255,1101.5,5833.773,1101.307Z" transform="translate(-5466.043 -1090.042)" fill="#666667"/>
    <path id="Caminho_62" data-name="Caminho 62" d="M2183.774,1081.306a1.315,1.315,0,0,1,1.233.065c.26.195-.13.39-.844.324C2183.449,1081.7,2183.255,1081.5,2183.774,1081.306Z" transform="translate(-2053.03 -1071.34)" fill="#666667"/>
    <path id="Caminho_63" data-name="Caminho 63" d="M530,931.3c0-.52,1.623-1.3,2.792-1.3.519,0,.454.26-.065.779C531.818,931.688,530,932.078,530,931.3Z" transform="translate(-506.906 -929.968)" fill="#666667"/>
  </g>
  <g id="layer105" transform="translate(3.435 0.023)">
    <path id="Caminho_64" data-name="Caminho 64" d="M228.56,972.779c-10.194-9.285-15.063-14.414-15.583-16.492-.39-1.688.454-2.662,12.141-14.089,14.024-13.7,14.739-14.089,17.985-10.259,4.48,5.324,5,3.766-4.74,13.895-5.324,5.454-8.765,9.545-8.765,10.324s2.6,3.7,6.817,7.661c3.766,3.506,6.817,6.882,6.817,7.531,0,.974-6.428,7.857-7.337,7.857C235.767,979.207,232.456,976.285,228.56,972.779Z" transform="translate(-212.907 -929.852)" fill="#8c5c5a"/>
  </g>
  <g id="layer106" transform="translate(3.866 0.015)">
    <path id="Caminho_65" data-name="Caminho 65" d="M232.1,969.947c-5.324-5.064-10.259-9.869-11.038-10.778-3.052-3.246-2.467-4.09,10.713-17.271,13.57-13.505,14.284-13.895,17.53-10.064,4.48,5.324,5,3.766-4.74,13.895-5.324,5.454-8.765,9.544-8.765,10.323s2.6,3.7,6.817,7.661c3.766,3.506,6.817,6.882,6.817,7.532,0,1.039-6.493,7.856-7.4,7.856C241.839,979.1,237.359,974.946,232.1,969.947Z" transform="translate(-219.539 -929.739)" fill="#b25856"/>
  </g>
  <g id="layer107" transform="translate(3.894 0.032)">
    <path id="Caminho_66" data-name="Caminho 66" d="M231.083,968.437c-8.9-8.635-11.168-11.167-11.1-12.531,0-2.273,24.023-25.906,26.3-25.906,1.558,0,7.142,5.908,6.688,7.142-.065.325-4.09,4.545-8.765,9.35-4.74,4.8-8.635,9.09-8.635,9.545,0,.519,3.246,3.961,7.142,7.726,3.961,3.766,7.142,7.142,7.142,7.532,0,1.1-2.337,3.831-5.129,6.038l-2.467,1.948Z" transform="translate(-219.979 -930)" fill="#d35656"/>
  </g>
  <g id="layer108" transform="translate(3.895 0.118)">
    <path id="Caminho_67" data-name="Caminho 67" d="M231.153,969.743c-8.116-7.857-11.232-11.3-11.168-12.4,0-1.688,22.984-24.737,25.711-25.776,1.428-.519,1.883-.325,3.9,1.948,4.22,4.935,4.545,4.026-5.194,13.895-4.87,4.87-8.83,9.35-8.83,9.934,0,.52,3.246,4.09,7.142,7.856,3.961,3.766,7.142,7.077,7.142,7.4-.065.714-1.1,1.948-4.61,5.259l-2.922,2.727Z" transform="translate(-219.985 -931.326)" fill="#eb6162"/>
  </g>
  <g id="layer109" transform="translate(3.896 0.253)">
    <path id="Caminho_68" data-name="Caminho 68" d="M241.426,981.418C231.168,971.939,220,960.446,220,959.407c0-.844,3.831-5.129,10.453-11.687,5.779-5.649,11.1-10.973,11.752-11.752a11.474,11.474,0,0,1,3.246-2.207c2.078-.844,2.4-.584,6.428,4.8l1.364,1.753-8.83,8.96c-4.87,4.935-8.83,9.479-8.83,10.129a5.877,5.877,0,0,0,1.883,2.857c14.284,13.635,13.5,11.947,8.051,17.076C242.79,981.937,242.27,982.2,241.426,981.418Z" transform="translate(-220 -933.397)" fill="#fc5d5c"/>
  </g>
  <g id="layer110" transform="translate(24.023 9.706)">
    <path id="Caminho_69" data-name="Caminho 69" d="M537.791,1267.067c-1.558-.195-3.117-1.1-5-2.986-1.558-1.493-2.792-2.987-2.792-3.376s3.831-4.48,8.505-9.09c4.675-4.675,8.765-8.96,9.155-9.674.584-1.039-.325-2.143-6.623-8.116-8.376-7.986-8.376-7.986-3.182-12.4,2.4-2.013,3.441-2.6,4.026-2.013.519.519.974.389,1.818-.325,1.1-.974,1.883-.389,11.752,8.9,5.844,5.454,10.973,10.648,11.427,11.492a4.664,4.664,0,0,1,.519,3.052c-.584,2.272-24.348,25-26.036,24.867C540.648,1267.392,539.025,1267.2,537.791,1267.067Z" transform="translate(-530 -1209.671)" fill="#acad96"/>
    <path id="Caminho_70" data-name="Caminho 70" d="M5650,1122.268a42.391,42.391,0,0,1,1.688-5c.909-2.467,2.855-7.661,4.284-11.622,1.429-3.9,3.636-9.934,4.871-13.31s2.662-7.532,3.246-9.22l1.04-3.117h5.454c2.986,0,5.389.195,5.258.52l-1.039,2.078c-.39.909-2.207,5.714-3.959,10.713s-4.87,13.7-6.949,19.348l-3.765,10.194h-5.064C5652.272,1122.853,5650,1122.593,5650,1122.268Z" transform="translate(-5317.571 -1079.935)" fill="#acad96"/>
    <path id="Caminho_71" data-name="Caminho 71" d="M1576.168,1117.074a17.336,17.336,0,0,1-3.766-3.247l-2.4-2.662v-25.452l2.922-2.857,2.857-2.857h21.1l2.792,2.727c2.6,2.532,2.792,2.987,2.792,6.168v3.441h-4.545c-4.35,0-4.545-.065-4.545-1.558,0-2.857-1.558-3.636-7.077-3.636-2.986,0-5.324.325-5.778.779-.519.519-.779,3.831-.779,10.648,0,11.622,0,11.687,6.038,11.427,3.246-.13,4.285-.52,6.428-2.208,1.428-1.1,2.337-2.208,2.013-2.532a9.469,9.469,0,0,0-3.441-.714l-2.922-.195-.195-3.377-.195-3.441h15.712l-.195,9.934-.195,9.869-3.766.195c-3.376.195-3.83.065-4.155-1.169-.325-1.3-.39-1.3-1.623-.195-1.039.974-2.662,1.169-8.57,1.3C1580.713,1117.593,1576.882,1117.4,1576.168,1117.074Z" transform="translate(-1502.475 -1079.935)" fill="#acad96"/>
    <path id="Caminho_72" data-name="Caminho 72" d="M2243.181,1117.139l-13.181-.13V1080h9.74v29.867h17.206v3.506a11.952,11.952,0,0,1-.324,3.766C2256.427,1117.2,2250.388,1117.269,2243.181,1117.139Z" transform="translate(-2119.624 -1079.935)" fill="#acad96"/>
    <path id="Caminho_73" data-name="Caminho 73" d="M2673.682,1116.074a3.2,3.2,0,0,1,.259-2.078c.325-.844,1.1-3.247,1.689-5.389s1.364-4.74,1.688-5.844c.389-1.039,2.077-6.753,3.766-12.661l3.182-10.713,7.726-.195,7.791-.195,3.766,12.856c2.077,7.077,4.545,15.323,5.519,18.375l1.753,5.519-2.987.455a22.274,22.274,0,0,1-5.064.065c-1.883-.325-2.207-.714-2.792-3.052-.389-1.428-.844-3.051-.974-3.506-.26-.585-1.948-.779-6.947-.65l-6.623.195-1.039,3.571-1.039,3.571-4.675.065C2676.084,1116.528,2673.877,1116.333,2673.682,1116.074Zm23.05-14.739c0-.324-.844-3.7-1.818-7.661-2.208-8.7-3.247-9.414-4.8-3.441-.585,2.272-1.429,5.649-1.948,7.467-.519,1.883-.844,3.571-.649,3.766C2688.031,1101.984,2696.732,1101.854,2696.732,1101.335Z" transform="translate(-2534.412 -1079)" fill="#acad96"/>
    <path id="Caminho_74" data-name="Caminho 74" d="M3300.845,1117.269c-.65-.26-.844-4.675-.844-18.829V1080h5.454c4.61,0,5.518.195,5.779,1.169a100.556,100.556,0,0,0,6.168,11.363,29.476,29.476,0,0,1,2.468,4.09,32.251,32.251,0,0,0,2.272,3.831c.325.324.584-3.571.584-9.934V1080h9.09v37.658h-4.156c-4.025,0-4.156-.065-5.714-2.4-.909-1.364-3.376-5.519-5.389-9.285-4.35-7.856-6.039-10.388-6.818-10.388-.324,0-.714,4.87-.779,10.908l-.194,10.843-3.571.13A22.245,22.245,0,0,1,3300.845,1117.269Z" transform="translate(-3120.151 -1079.935)" fill="#acad96"/>
    <path id="Caminho_75" data-name="Caminho 75" d="M3882.857,1114.412l-2.856-2.857v-25.971l2.726-2.792,2.728-2.792h19.478l2.792,2.727c2.662,2.6,2.792,2.922,2.792,6.493v3.766h-9.091v-2.143a4.911,4.911,0,0,0-.779-2.922c-1.038-1.039-9.089-1.039-10.128,0-1.1,1.1-1.039,19.933.064,21.361.585.779,1.753.974,5.259.844,2.468-.065,4.676-.389,5-.714a7.2,7.2,0,0,0,.714-2.792l.26-2.272,4.675-.195,4.675-.195v3.766c-.065,3.506-.259,3.961-2.662,6.623l-2.6,2.792-10.064.13-10.129.065Z" transform="translate(-3662.493 -1079.935)" fill="#acad96"/>
    <path id="Caminho_76" data-name="Caminho 76" d="M4375.16,1116.879c-.455-.26-.13-2.272,1.039-6.168.909-3.117,2.078-7.012,2.6-8.635.456-1.623,2.143-7.207,3.636-12.466l2.856-9.609h15.648l1.883,6.688c1.038,3.636,2.4,8.506,3.052,10.843s2.208,7.532,3.5,11.622a56.43,56.43,0,0,1,2.014,7.661c-.26.26-6.623.389-9.22.26-.455-.065-.974-1.169-1.233-2.467-.845-4.675-.974-4.74-8.116-4.74h-6.428l-.649,2.468c-.325,1.3-.714,2.986-.844,3.7-.2,1.169-.714,1.3-4.611,1.3A18.323,18.323,0,0,1,4375.16,1116.879Zm22.594-15.323c-.713-2.207-2.336-8.246-3.05-11.3-.845-3.9-2.208-4.026-3.182-.325-.456,1.493-1.3,4.74-2.014,7.272-.649,2.468-1.232,4.74-1.232,5,0,.325,2.207.52,4.934.52C4397.625,1102.725,4398.08,1102.595,4397.754,1101.556Z" transform="translate(-4125.318 -1079.935)" fill="#acad96"/>
    <path id="Caminho_77" data-name="Caminho 77" d="M4990.845,1116.269c-.648-.26-.844-4.545-.844-18.764V1079l4.87.2,4.935.195,2.986,7.142c1.624,3.961,3.766,8.765,4.675,10.713a16.108,16.108,0,0,1,1.493,4.22c-.129.39,0,.455.2.195a43.263,43.263,0,0,0,2.6-5.519c1.1-2.792,3.181-7.791,4.608-11.038l2.533-6.038h9.414v37.009l-1.428.065a26.376,26.376,0,0,0-3.118.26,9.472,9.472,0,0,1-3.051-.13c-1.428-.325-1.493-.649-1.624-9.544-.194-10.323.26-10.453-4.675,1.234-2.726,6.363-2.856,6.493-5.063,6.688l-2.272.195-3.117-7.662c-4.87-11.817-4.87-11.817-4.87-.649,0,5.259-.194,9.544-.455,9.609A46.344,46.344,0,0,1,4990.845,1116.269Z" transform="translate(-4700.423 -1079)" fill="#acad96"/>
    <path id="Caminho_78" data-name="Caminho 78" d="M1216.623,1181.8l-6.623-6.687,6.623-6.558,6.688-6.558,2.532,2.272,2.467,2.273-4.35,4.415-4.415,4.48,4.35,4.35,4.285,4.415-2.078,2.142a9.776,9.776,0,0,1-2.467,2.143C1223.44,1188.491,1220.324,1185.5,1216.623,1181.8Z" transform="translate(-1165.849 -1156.611)" fill="#acad96"/>
    <path id="Caminho_79" data-name="Caminho 79" d="M6102.4,1185.055l-2.4-2.078,4.545-4.545,4.545-4.48-4.35-4.415-4.415-4.415,2.4-2.4c1.364-1.3,2.532-2.272,2.6-2.078.13.13,3.116,3.311,6.688,6.947l6.493,6.623-6.493,6.493c-3.572,3.571-6.624,6.493-6.818,6.493A22.37,22.37,0,0,1,6102.4,1185.055Z" transform="translate(-5738.354 -1155.318)" fill="#acad96"/>
  </g>
  <g id="layer111" transform="translate(27.075 18.082)">
    <path id="Caminho_80" data-name="Caminho 80" d="M583.818,1257.02a21.061,21.061,0,0,1-3.831-3.116L577,1251.177l1.818-2.337c1.039-1.3,5.064-5.259,8.9-8.9s7.207-7.272,7.4-8.116c.325-1.3-.39-2.273-4.415-5.973-10.324-9.609-9.8-8.96-8.7-11.167a19.207,19.207,0,0,1,3.961-4.286l2.857-2.4,10.583,9.934c5.844,5.454,10.973,10.648,11.427,11.492a4.663,4.663,0,0,1,.52,3.052c-.455,1.883-24.283,25-25.711,24.932A5.688,5.688,0,0,1,583.818,1257.02Z" transform="translate(-577 -1208)" fill="#c4bd88"/>
  </g>
  <g id="layer112" transform="translate(27.335 18.212)">
    <path id="Caminho_81" data-name="Caminho 81" d="M583.727,1255.515,581,1252.463l9.025-9.025c5.973-5.974,9.09-9.545,9.09-10.454s-2.143-3.246-6.493-7.142c-3.636-3.181-6.688-6.493-6.947-7.4-.325-1.3.195-2.078,3.376-5l3.766-3.441,10.973,10.453c5.973,5.779,11.1,11.168,11.3,11.947a4.463,4.463,0,0,1-.649,3.052c-.519.779-6.1,6.363-12.336,12.4-10.194,9.739-11.557,10.843-13.505,10.778C586.909,1258.566,585.87,1257.917,583.727,1255.515Z" transform="translate(-581 -1210)" fill="#d7d177"/>
  </g>
  <g id="layer113" transform="translate(27.919 18.861)">
    <path id="Caminho_82" data-name="Caminho 82" d="M592.727,1265.255c-1.493-1.493-2.727-3.116-2.727-3.506s3.9-4.48,8.635-9.09c4.8-4.545,8.83-8.96,9.025-9.739.325-1.169-.909-2.6-6.687-7.986-4.026-3.765-7.077-7.077-7.077-7.791,0-1.1,6.038-7.142,7.142-7.142.974,0,21.1,19.219,21.945,20.972a2.825,2.825,0,0,1,0,3.311c-.454.844-5.973,6.557-12.271,12.661C597.467,1269.8,597.272,1269.865,592.727,1265.255Z" transform="translate(-590 -1220)" fill="#e6dd6e"/>
  </g>
  <g id="layer114" transform="translate(27.919 18.731)">
    <path id="Caminho_83" data-name="Caminho 83" d="M592.727,1263.385a13.294,13.294,0,0,1-2.727-3.376c0-.389,3.961-4.415,8.765-9.09,4.87-4.61,8.9-9.09,9.09-9.869.195-1.168-1.234-2.857-7.012-8.245-8.246-7.791-8.311-7.856-2.792-12.4l2.987-2.4,5,4.415c2.727,2.467,7.726,7.142,11.038,10.324,5.064,4.87,6.038,6.168,6.038,7.791-.065,2.467.39,2.013-12.791,14.8C597.467,1267.865,597.207,1267.93,592.727,1263.385Z" transform="translate(-590 -1218)" fill="#fef952"/>
  </g>
  <g id="layer115" transform="translate(27.963 20.484)">
    <path id="Caminho_84" data-name="Caminho 84" d="M593.226,1872.922c-1.558-1.623-2.727-2.922-2.532-2.922a19.783,19.783,0,0,1,3.181,2.922c1.558,1.623,2.727,2.922,2.532,2.922A19.791,19.791,0,0,1,593.226,1872.922Z" transform="translate(-590.673 -1829.42)" fill="#f7ed65"/>
    <path id="Caminho_85" data-name="Caminho 85" d="M752.371,1920.649c.195-.324.519-.649.714-.649s.13.325-.065.649c-.195.389-.52.649-.714.649S752.177,1921.039,752.371,1920.649Z" transform="translate(-741.702 -1876.174)" fill="#f7ed65"/>
    <path id="Caminho_86" data-name="Caminho 86" d="M604.618,1724.221a46.365,46.365,0,0,1,4.48-4.22,33.993,33.993,0,0,1-3.831,4.22,46.416,46.416,0,0,1-4.48,4.22A33.937,33.937,0,0,1,604.618,1724.221Z" transform="translate(-600.117 -1689.16)" fill="#f7ed65"/>
    <path id="Caminho_87" data-name="Caminho 87" d="M1042.12,1621.3a4.965,4.965,0,0,1,1.493-1.3c.195,0-.195.584-.844,1.3a4.965,4.965,0,0,1-1.493,1.3C1041.081,1622.6,1041.47,1622.013,1042.12,1621.3Z" transform="translate(-1011.972 -1595.652)" fill="#f7ed65"/>
    <path id="Caminho_88" data-name="Caminho 88" d="M820,1611.729a3.726,3.726,0,0,1,1.169-1.1c.974-.844,1.039-.779.195.26S820,1612.249,820,1611.729Z" transform="translate(-805.11 -1586.343)" fill="#f7ed65"/>
    <path id="Caminho_89" data-name="Caminho 89" d="M797.208,1477.468,795,1475l2.467,2.207c2.208,2.143,2.727,2.662,2.208,2.662A21.335,21.335,0,0,1,797.208,1477.468Z" transform="translate(-781.734 -1460.067)" fill="#f7ed65"/>
    <path id="Caminho_90" data-name="Caminho 90" d="M1001.812,1442.072c-.26-.455-.195-.52.26-.26.779.454,1.039,1.039.519,1.039C1002.4,1442.851,1002.072,1442.527,1001.812,1442.072Z" transform="translate(-974.976 -1428.892)" fill="#f7ed65"/>
    <path id="Caminho_91" data-name="Caminho 91" d="M946.234,1386.494,945,1385l1.493,1.234c1.364,1.169,1.753,1.688,1.234,1.688A7.893,7.893,0,0,1,946.234,1386.494Z" transform="translate(-921.994 -1375.911)" fill="#f7ed65"/>
    <path id="Caminho_92" data-name="Caminho 92" d="M654.785,1324.646c-1.364-1.428-2.337-2.922-2.143-3.441.26-.649.389-.649.389.13a11.063,11.063,0,0,0,2.467,3.376c1.3,1.364,2.273,2.467,2.078,2.467A18.467,18.467,0,0,1,654.785,1324.646Z" transform="translate(-648.596 -1315.816)" fill="#f7ed65"/>
    <path id="Caminho_93" data-name="Caminho 93" d="M660,1249.026a19.156,19.156,0,0,1,2.143-2.143L664.22,1245l-1.883,2.143C660.52,1249.09,660,1249.545,660,1249.026Z" transform="translate(-655.499 -1245)" fill="#f7ed65"/>
    <path id="Caminho_94" data-name="Caminho 94" d="M831.813,1282.072c-.26-.455-.195-.52.26-.26s.779.585.779.779C832.851,1283.111,832.267,1282.851,831.813,1282.072Z" transform="translate(-816.014 -1279.28)" fill="#f7ed65"/>
  </g>
  <g id="layer116" transform="translate(68.109 9.771)">
    <path id="Caminho_95" data-name="Caminho 95" d="M5651.666,1122.008c.13-.519,3.571-10.129,7.661-21.426l7.468-20.582h5.063c2.727,0,5,.195,5,.39,0,.455-1.687,5.129-9.869,27.529l-5.389,14.609-5.064.195C5652.445,1122.853,5651.471,1122.723,5651.666,1122.008Z" transform="translate(-5363.192 -1080)" fill="#fefefe"/>
    <path id="Caminho_96" data-name="Caminho 96" d="M1572.662,1114.087l-2.662-2.922v-25.582l2.987-2.792,3.052-2.792h20.777l2.792,2.727c2.662,2.6,2.857,2.987,2.857,6.168v3.441h-4.545c-4.35,0-4.545-.065-4.545-1.558,0-2.857-1.558-3.636-7.077-3.636-2.986,0-5.324.325-5.778.779-.519.519-.779,3.831-.779,10.648,0,12.077.065,12.206,6.1,11.557a11.231,11.231,0,0,0,6.428-2.337,9.267,9.267,0,0,0,2.4-2.467c0-.324-1.558-.649-3.376-.779l-3.441-.195-.195-3.377-.195-3.441h15.648v19.478h-3.9c-3.441,0-3.9-.13-3.9-1.3,0-.714-.26-1.3-.52-1.3a4.018,4.018,0,0,0-1.753,1.3c-1.039,1.169-2.013,1.3-9.415,1.3h-8.246Z" transform="translate(-1546.561 -1080)" fill="#fefefe"/>
    <path id="Caminho_97" data-name="Caminho 97" d="M2230,1098.5V1080h9.09l.13,14.8.195,14.739,8.635.195,8.57.195v7.077H2230Z" transform="translate(-2163.709 -1080)" fill="#fefefe"/>
    <path id="Caminho_98" data-name="Caminho 98" d="M2673.844,1113.958c.454-1.753,1.3-4.545,1.818-6.363.52-1.753,1.688-5.713,2.532-8.765.909-3.052,2.532-8.441,3.571-12.012l1.883-6.493,7.726-.195,7.726-.13,2.857,9.869c1.623,5.454,4.155,13.83,5.648,18.569l2.727,8.57H2700.14l-.714-2.727c-.39-1.558-.844-3.182-.974-3.571-.194-.584-2.207-.844-7.012-.844h-6.753l-.714,2.532a15.586,15.586,0,0,0-.779,3.571c0,.844-.844,1.039-5.129,1.039H2673Zm22.27-12.012c0-.455-.844-3.9-1.818-7.662-2.207-8.441-3.246-9.025-4.8-2.792-1.623,6.1-2.143,8.051-2.662,9.8-.455,1.364-.389,1.429,4.415,1.429C2694.751,1102.725,2696.179,1102.465,2696.114,1101.946Z" transform="translate(-2577.947 -1080)" fill="#fefefe"/>
    <path id="Caminho_99" data-name="Caminho 99" d="M3300,1098.5V1080h10.259l2.792,5.064c1.559,2.727,3.116,5.519,3.506,6.1.324.584,1.753,2.987,3.116,5.389,1.428,2.4,2.6,4.22,2.792,4.09.13-.13.26-4.87.325-10.453l.065-10.194h8.96v37.009h-8.831l-2.986-5c-1.623-2.792-4.351-7.6-6.1-10.713-1.753-3.181-3.571-5.714-3.96-5.714-.65,0-.844,2.4-.909,9.609-.065,5.259-.065,10.064,0,10.713.13.974-.455,1.1-4.415,1.1H3300Z" transform="translate(-3164.237 -1080)" fill="#fefefe"/>
    <path id="Caminho_100" data-name="Caminho 100" d="M3882.727,1114.217l-2.726-2.792v-25.971l2.792-2.727,2.792-2.727h19.348l2.792,2.727c2.662,2.6,2.792,2.922,2.792,6.493v3.766h-9.091v-2.143a4.911,4.911,0,0,0-.779-2.922c-.909-.909-8.829-1.039-10.193-.195-.779.519-.909,2.532-.779,10.843.064,6.1.455,10.648.844,11.1.779.974,9.414.649,10.453-.39a5.389,5.389,0,0,0,.714-2.792l.065-2.142,4.74-.195,4.675-.195v3.766c0,3.636-.13,3.961-2.791,6.557l-2.792,2.727h-20.128Z" transform="translate(-3706.579 -1080)" fill="#fefefe"/>
    <path id="Caminho_101" data-name="Caminho 101" d="M4370,1116.62c0-.26.909-3.376,1.947-7.012,1.1-3.636,2.272-7.6,2.6-8.83s1.3-4.61,2.208-7.467c.844-2.857,2.078-7.012,2.662-9.22l1.169-4.09h15.258l1.3,4.09c.715,2.208,1.949,6.363,2.728,9.22.844,2.857,2.6,8.7,3.9,12.986,1.365,4.285,2.664,8.441,2.922,9.285.389,1.363.324,1.428-4.739,1.428h-5.195l-.455-2.4c-.844-4.675-.974-4.74-8.181-4.74-4.609,0-6.558.26-6.753.844-.13.389-.584,2.013-.974,3.571l-.714,2.727h-4.8C4372.208,1117.009,4370,1116.814,4370,1116.62Zm23.113-15c-.648-2.078-3.636-13.505-3.636-13.959,0-.325-.454-.52-.974-.52s-1.233,1.1-1.623,2.792c-.39,1.493-1.3,4.675-2.013,7.012a44.97,44.97,0,0,0-1.233,5.064c0,.454,1.688.714,4.934.714C4392.919,1102.725,4393.439,1102.595,4393.114,1101.621Z" transform="translate(-4164.765 -1080)" fill="#fefefe"/>
    <path id="Caminho_102" data-name="Caminho 102" d="M4990,1098.5V1080h9.61l1.688,4.22c2.078,5.194,4.155,9.934,5.129,11.687.39.714,1.169,2.6,1.817,4.22l1.1,2.922.779-1.948c.39-1.039,2.532-6.233,4.739-11.492l4.026-9.609h9.414v37.009h-9.089v-9.869l-.065-9.934-2.792,6.817c-5.064,12.336-4.673,11.687-6.751,11.687a4.321,4.321,0,0,1-2.661-.844,93.285,93.285,0,0,1-3.9-8.83c-1.753-4.35-3.376-8.116-3.571-8.311-.194-.26-.39,4.025-.39,9.415v9.869H4990Z" transform="translate(-4744.509 -1080)" fill="#fefefe"/>
    <path id="Caminho_103" data-name="Caminho 103" d="M1215.688,1189.284,1209,1182.6l6.558-6.3a73.039,73.039,0,0,1,7.012-6.3c.974.065,4.8,4.026,4.285,4.48-.324.26-2.337,2.272-4.48,4.48l-3.831,4.026,4.35,4.415,4.35,4.415-2.142,2.078a11.5,11.5,0,0,1-2.467,2.077C1222.505,1195.971,1219.324,1192.985,1215.688,1189.284Z" transform="translate(-1209 -1164.156)" fill="#fefefe"/>
    <path id="Caminho_104" data-name="Caminho 104" d="M6102.4,1185.413l-2.4-2.078,4.545-4.545,4.545-4.48-4.35-4.415-4.35-4.415,2.271-2.208,2.273-2.273,6.752,6.753,6.688,6.752-6.428,6.493a83.133,83.133,0,0,1-6.753,6.557A22.294,22.294,0,0,1,6102.4,1185.413Z" transform="translate(-5782.44 -1155.741)" fill="#fefefe"/>
  </g>
</svg>
