<svg xmlns="http://www.w3.org/2000/svg" width="71.428" height="71.43" viewBox="0 0 71.428 71.43">
  <g id="telegram" transform="translate(-1365.572 -3943.57)">
    <g id="Grupo_25" data-name="Grupo 25" transform="translate(303.572 14.57)">
      <g id="telegram-2" data-name="telegram" transform="translate(1073 3946.019)">
        <path id="Caminho_187" data-name="Caminho 187" d="M43.514,1.024A2.869,2.869,0,0,0,41.237,0a4.467,4.467,0,0,0-1.589.316L2.236,14.6C.251,15.355-.017,16.492,0,17.1s.349,1.73,2.374,2.375l.036.011,7.76,2.221,4.2,12a3.623,3.623,0,0,0,3.352,2.652A3.967,3.967,0,0,0,20.4,35.219l4.8-4.42,6.962,5.606,0,0,.066.053.019.014a4.019,4.019,0,0,0,2.444.918h0a3.43,3.43,0,0,0,3.27-3.04L44.1,4.085a3.615,3.615,0,0,0-.581-3.061ZM12.767,21.287l14.972-7.649-9.322,9.906a1.293,1.293,0,0,0-.314.577L16.3,31.4Zm5.881,12.027c-.062.057-.124.108-.187.155l1.668-6.755,3.034,2.443ZM41.557,3.571l-6.13,30.268c-.059.29-.248.964-.732.964a1.509,1.509,0,0,1-.848-.368l-7.889-6.352,0,0L21.261,24.3,34.742,9.976a1.295,1.295,0,0,0-1.532-2.04L11.037,19.263l-7.866-2.25,37.4-14.277a1.9,1.9,0,0,1,.666-.146c.079,0,.22.009.272.074a1.235,1.235,0,0,1,.048.907Zm0,0" transform="translate(0 0)" fill="#fff"/>
      </g>
      <g id="instagram_1_" data-name="instagram (1)" transform="translate(1062 3928.999)">
        <path id="Caminho_185" data-name="Caminho 185" d="M36.418,71.432h-.711c-5.6.014-10.772-.129-15.8-.435A21.125,21.125,0,0,1,7.727,66.386a19.546,19.546,0,0,1-6.568-10.6A46.987,46.987,0,0,1,.081,44.563c-.036-2.608-.073-5.7-.081-8.84.008-3.155.045-6.245.081-8.853A46.992,46.992,0,0,1,1.159,15.65a19.546,19.546,0,0,1,6.568-10.6A21.125,21.125,0,0,1,19.9.437C24.935.131,30.11-.011,35.721,0c5.6-.012,10.772.129,15.8.435A21.125,21.125,0,0,1,63.7,5.046a19.543,19.543,0,0,1,6.568,10.6,46.989,46.989,0,0,1,1.078,11.22c.036,2.608.074,5.7.081,8.84s-.045,6.245-.081,8.853a2.79,2.79,0,1,1-5.58-.076c.035-2.592.073-5.662.08-8.777s-.045-6.171-.08-8.764a42.748,42.748,0,0,0-.905-9.916,14.089,14.089,0,0,0-4.687-7.658,15.371,15.371,0,0,0-8.989-3.364c-4.913-.3-9.97-.437-15.465-.425-5.507-.013-10.565.126-15.478.425a15.375,15.375,0,0,0-8.989,3.364A14.088,14.088,0,0,0,6.566,17.03a42.748,42.748,0,0,0-.905,9.916c-.035,2.592-.072,5.662-.08,8.777.008,3.1.045,6.171.08,8.764A42.748,42.748,0,0,0,6.566,54.4a14.089,14.089,0,0,0,4.687,7.658,15.372,15.372,0,0,0,8.989,3.364c4.913.3,9.972.438,15.465.425,5.508.013,10.565-.126,15.478-.425a15.372,15.372,0,0,0,8.989-3.364,13.407,13.407,0,0,0,3.831-5.132,2.79,2.79,0,0,1,5.121,2.218A18.927,18.927,0,0,1,63.7,66.386,21.121,21.121,0,0,1,51.525,71c-4.818.293-9.768.436-15.106.436Z" fill="#04a1d8"/>
      </g>
    </g>
  </g>
</svg>
