<svg xmlns="http://www.w3.org/2000/svg" width="72" height="71.43" viewBox="0 0 72 71.43">
  <g id="whatsapp" transform="translate(0 0)">
    <path id="Caminho_180" data-name="Caminho 180" d="M36,71.43h-.014a36.067,36.067,0,0,1-16.178-3.844l-15.385,3.5a2.813,2.813,0,0,1-3.371-3.347L4.385,52.585A35.551,35.551,0,0,1,0,35.759c0-.02,0-.04,0-.059A35.312,35.312,0,0,1,10.6,10.457a36.019,36.019,0,0,1,50.762.009,35.294,35.294,0,0,1,4.446,45.225,2.813,2.813,0,0,1-4.642-3.177,29.669,29.669,0,0,0-3.773-38.064,30.365,30.365,0,0,0-51.766,21.2c0,.018,0,.036,0,.053A30.061,30.061,0,0,0,9.8,50.734a2.811,2.811,0,0,1,.314,2.015L7.5,64.617l12.071-2.746a2.818,2.818,0,0,1,1.966.271,30.4,30.4,0,0,0,14.451,3.663H36a30.43,30.43,0,0,0,15.577-4.289,2.812,2.812,0,0,1,2.881,4.831A36.057,36.057,0,0,1,36,71.43ZM28.056,21.406c-.617-1.367-1.266-1.413-1.853-1.437H24.625A3.029,3.029,0,0,0,22.43,21a9.188,9.188,0,0,0-2.882,6.844c0,4.038,2.951,7.94,3.362,8.489s5.7,9.1,14.066,12.388c6.956,2.734,8.372,2.19,9.881,2.053s4.872-1.985,5.558-3.9a6.832,6.832,0,0,0,.481-3.9c-.205-.342-.755-.547-1.578-.957s-4.86-2.43-5.615-2.7-1.3-.41-1.853.411-2.167,2.719-2.647,3.266-.961.617-1.784.207A22.775,22.775,0,0,1,32.824,39.1,25.226,25.226,0,0,1,28.2,33.328c-.481-.821-.052-1.266.361-1.675.37-.367.87-.87,1.282-1.349a5.524,5.524,0,0,0,.8-1.369,1.507,1.507,0,0,0-.068-1.438c-.206-.41-1.787-4.469-2.519-6.092" fill="#32d033"/>
  </g>
</svg>
